<svg id="Layer_1" data-name="Layer 1" xmlns="http://www.w3.org/2000/svg" viewBox="0 0 562.49 364.63">
    <defs>
        <style>
            .cls-1{fill:#68a1cb;fill-opacity:0.5;stroke:#b8cee5;stroke-opacity:0.4;}
            .cls-1,
            .cls-5{stroke-miterlimit:10;}
            .cls-2{fill:#356dad;}
            .cls-3{font-size:12px;fill:#303030;font-family:Open
            Sans;}
            .cls-4{font-size:9.6px;fill:#fff;font-family:Open
            Sans;}
            .cls-5{fill:none;stroke:#2d2b29;fill-rule:evenodd;}
        </style>
    </defs>
    <title>01-HDR-511-SVG map with locations</title>
    <path id="AF" class="cls-1"
          d="M396.57,196.35l-1.07-.17-2.19,1.46-0.62-.62,0.17-1.63-1.12-1.12-2,1.74-0.51.9-0.51-.39-1.12.62-0.45-.22-1.18-.39H385.1l-0.45-.06-0.73-.51-0.22.67-1.29.39-0.34,1.57-2.14.9-0.34.84-1.18.28-1.57-.73-0.62,2.36-0.45,1.35,0.67,0.28-0.67,1,0.62,2.64,1.18,0.28,0.11,1.18-1.41,1.63,2.59,0.9,3.88-.28,2-.73,0.06-1.52,0.84-1,3.71-1.07-0.11-1.12,0.67-1.12,1-.45-0.62-1.35,1.46,0.06,0.34-1.41,0.79-.79L392.35,199l0.9-.84,4.27-1,0.9-.22-0.28-.56h-1.57Z"/>
    <path id="AO" class="cls-1"
          d="M300.31,269.16l1.57,3.54-0.51.62,0.73,2.25,0.39,2.64-1.74,2.42-1.35,5.06,0.17,1,1.69-.56,2.19,0.67,6.3-.06,1.07,0.79,3.77,0.22,2.87-.67-1-1-1.07-1.35,0.06-5.12h3.26V277l-0.17-.51-0.73-.11-2,.34,0.06-1.91-0.62-1.57,0.22-1-0.34-1.57-3.6-.22-3,1.46-1.41-2.25-0.39-1.18H302l-1.63.39Zm1.18-2.36-0.56-.56-0.45.28-0.62.67,0.39,1.18,0.39-.17,0.06-.67,0.28-.39Z"/>
    <path id="AL" class="cls-1"
          d="M311.33,186.62l0.11,0.67h0l-0.06,2.36,0.11,1,0.9,1.12,0.28,0.17,0.73-1,0.11-.67,0.51-.28,0.06-.56-0.67-.51-0.22-.9,0.22-.73h0l-0.11-.79-0.39-.22-0.34-.56-0.39.17-0.11-.39Z"/>
    <path id="AE" class="cls-1"
          d="M367.72,218.27l-2.25,2.25-3.43.17-0.06-.45-0.28.06,0.06,0.39,0.62,1.74,4.67,0.84,0.34-.34,0.06-.67,1-3.09h0.79l-0.51-2Z"/>
    <path id="AR" class="cls-1"
          d="M174.19,356.2v5.9h1.69l1,0.06,0.79,1,1.46-.11,0.67-1.35-2.19-.67-2-1.57-0.79-2Zm2.42-60.45,0.17,0.45-0.56,1.74-1.69.84,0.17,4.1L173.57,304l-1,1.63L172,307.23l0.17,1.74-1,1.86,0.73,3.2,0.39,0.34v1.74l-0.9,1.86,0.06,1.57-1.18,1.24v1.8l0.45,1.91-1,.73L169,329.1l0.28,2.53-0.62.45,0.34,2.47,0.73,0.84-0.51.9,0.39,3-0.56,3-0.84,2,0.17,1.18-0.51,1.52L166.71,348l0.11,2.59,0.56,0.9,1-.17-0.06,1.86,0.62,1.46,3.77,0.34,1.46,0.39,0.67,0.11-1-1.46-0.51-2.59L174,350.3l1.41-1,1-2.81,1.86-1.35,0.56-2.08-1.52-.45L175.76,341l0.45-1.69,1.24-1.12h1.46l0.62-3.37,1.24-1.35,1.46-.67-0.45-1.07-0.84.67-1.07-.62-0.22-2.08,0.62-.56,1.52,0.73,1.57-.28,1-.73-0.28-1,0.34-1.52L184,325.11l1.69,0.22,3.15-.39,2.31-1.07,1.52-2.53,0.06-1-1-.84,0.22-1.35-2-1.63,0.11-1,0.45-3.49,0.39-1.86,0.39-1.46,2.08-2.42,4.1-3.43,0.06-1.41-0.79-1-0.79.34-0.28,1.52-1.41,1.35-1.24.28-3.32-.73,1.52-2.64-0.22-.79-1.63-.67-1.91-1.24-1.29-.28-2.87-2.76-0.22-.34-1.8-.06-0.62,1.35-0.9-1.24-2-.39Z"/>
    <path id="AM" class="cls-1"
          d="M353.72,192.24l-1.35-.9,0.45-.67-1.12-1.57-0.34-.56-2.19.34,0.28,0.73-0.17,1,1.18,0.51,0.62,0.62,0.34-.06,0.45,0.56h0.67v0.34l0.62,1.18,0.56-.06v-1.46Z"/>
    <path id="TF" class="cls-1" d="M390.83,348.95l0.39-1.52-1.46-.28-1-.73-0.28,2.76Z"/>
    <path id="AU" class="cls-1"
          d="M508,329.1l-1-.17-0.06,1,0.9,1.8,0.22,1.41,1,1.86,2.36-1.29,0.56,0.56,0.17-1.69,0.56-.73-0.11-2.47-3,.56ZM505.14,281l-0.06-1.46-1.57-3.43-0.56.62-0.73,2.19L501.94,281l0.28,2.19L500.93,287l-1,.56-2.53-1.46h-0.45l-4.39-2.92,0.9-2-0.17-.62,1.52-1.57-0.73-.79-1.86.62-5.4-1.57,1.12,0.51,0.06,0.79-2.08.11-1,.56-1.91,3,0.34,0.9-2-.17-2-1.69-2.19,1.12-2,1.69L475,285.3l-0.67-.34-0.51.79,0.56,0.79-0.67.34L473,285.47,472,286.87l-0.11,1.52-2.14,2.47-4.1,1.12-1.24.62-2.31.56-2,1.29-0.67,1.18-0.11-1.29-0.62,1.24-0.56,3.26,1.29,2.42v0.9L458.14,301l1.12,4.39,1.35,2.42-0.06,1,1.07,2.87,0.17,1.07-0.39,2.36-0.79.28-0.06,1.07L463,318l2.19,0.06,2-1.07,0.9-1,2.19-.28,1.41,0.34,2.31-.22,0.9-1.74,3-1.35,1.46,0.11,3.77-1.29,2.81-.17,1.52,0.9,1.07,0.06,2,1.12,1.52,2.47L492,317l1.24,0.79,0.62-1.52,1-.62,1.29-1.57,0.11,1.41-0.84,2-0.84,1.07,1.41-.34,0.79-1.29,0.39,1.41-0.51.9,1.52,0.22,1.41,3.26,1,1.24,4.61,1.57,1.35-1.46,0.84-.39-0.22,1,2.25,1.24,3.09-2.42,1.74-.06,0.9-.67,0.51-3.43,0.62-1,1.57-4,1.18-.9,1-3-0.06-1,0.79-4L520,304l0.06-2.08-0.45-1.41-3-3.09-0.28-1.8-1-.45-0.62.39-1.29-3.26-3.82-2.81L509,288.33l-1.24-4.67,0.17-.73-1.24-1.29-1,.62Z"/>
    <path id="AT" class="cls-1"
          d="M307,171.94l-0.73.11-2.64.39-1.18-.79-0.56,1.07-0.56.28-0.39,1.46-1.86.34-2.36-.11-0.45.11,0.06,0.39-0.22.56,0.73,0.39,0.79,0.06,1,0.34,0.17-.45,1.52-.39,0.34,0.79,2.25,0.56,1.29,0.17,0.79-.51,1.35-.06,0.28-.39,0.51-1.46-0.28-.51h0.9l0.11-1-0.17-.79,0.11-.28Z"/>
    <path id="AZ" class="cls-1"
          d="M351.08,191.73l0.22,0.79,0.79,0.9,1.07,0.28-0.62-1.18v-0.34h-0.67l-0.45-.56Zm2.53-4.39-0.39.28,0.79,1.12-2.19-.45-0.39.34,0.34,0.56,1.12,1.57-0.45.67,1.35,0.9,0.06,1.41,1.86-1.46,1.07,0.45-0.56,1,1.35,1-0.06-1,1.12-2.76,1.29-.17-1.18-.67-0.79-1.46-0.84-1.12h0l-1,.84-0.28.51-0.67-.17-1.07-1.29Z"/>
    <path id="BI" class="cls-1"
          d="M328.76,263.09h0l-0.84-.11-0.45.9-1-.11,0.39,0.73v0.28l0.56,1.46v0.06h0.17l0.56-.56,1-1.63-0.34-.34Z"/>
    <path id="BE" class="cls-1"
          d="M286.42,165.7l-1.24.51,1,0.9,1.8,2.14,0.79-.17,1.35,1.12,0.17-1.35,0.39-.11,0.17-1.63-0.84-.56-1-1.07-1.46.51-1.07-.28h0Z"/>
    <path id="BJ" class="cls-1"
          d="M285.69,240.09h-0.56l-0.51.45-0.34.45-0.79.17-0.34.67-0.56.17-0.22.84,1.41,2.14-0.06,3.6,0.39,1.07,1.29-.17,0.06-3.54,1.69-3.54-0.34-1,0.06-.51Z"/>
    <path id="BF" class="cls-1"
          d="M280.85,235.82l-2.7.56-2.36,2-0.73-.22-0.67,1.46-1.24,1.35-0.39,1.24,0.11,0.9,0.67,0.34,0.28,0.51,2-.11,1.07,0.39L276.63,243l0.06-.9,3.88-.22L281.3,242l1.35,0.06,0.56-.17,0.34-.67,0.79-.17,0.34-.45,0.06-1.07-1.8-.34-1.12-2.53,0.11-.79Z"/>
    <path id="BD" class="cls-1"
          d="M425,221.42l-0.67,1.07-0.84-.9,1.18-1.07,0.73-1.46-3.82-.51-0.11-1.18-2-.84-0.56,1.18,1.12,0.9-1.29,1.29,1,0.45-0.28,1,0.79,2.64,0.62,0.17,1.35,0.22,0.34-1.63,1.46,0.06,1,2.64,0.45,0.84L425.3,225l0.56,0.28,0.06-1.18Z"/>
    <path id="BG" class="cls-1"
          d="M316.56,182.23l-0.39.51,0.11,0.79,0.73,0.9L316.33,186l-0.28.28,0.79,0.67,0.11,1.41,1.18,0.06,1.24-.56,1.12,0.73,1.41-.17v-1l1.57-.67,1.35,0.28-0.51-1.18,0.56-1.52,0.79-.9-2-1-2.59,1.07-4.1-.28Z"/>
    <path id="BS" class="cls-1"
          d="M160.35,221.2l-1-2.47L159,219.79Zm-0.45-4.89-1.8-.39,0.11,0.62Zm1.24,0-0.51.11v0.9Z"/>
    <path id="BA" class="cls-1"
          d="M310.2,185.66l0.22-1.18,0.51-.51,0.28-.17,0.39-.11,0.22-1-0.73-.84,0.39-1h-0.56l-0.73-.51-3.49.17-0.56-.51-0.34.9,3,3.88Z"/>
    <path id="BY" class="cls-1"
          d="M325.16,153l-1.69,1.07-1,.45,0.17,1.24-1.29.84-0.34,1.52-1.69,1h-1.52l0.06,1.18,0.45,2-1,.51,0.51,1.18,0.06,1.12,0.73-.11,0.84-.67,2.81,0.17,1.74,0.62h2.42l0.39,0.56,2,0.11,0.56-1.8,1.35-.17h0l-0.39-1.63-0.39-.84,0.28-.22,1.24,0.11,0.62-.56-2-2.25-1-1.74,0.17-2-1.52-.67-0.84.34-0.22-.67Z"/>
    <path id="BZ" class="cls-1" d="M142.87,233.68l0.56-.51,0.11-1.8V230h-0.28l-1,.9v1.52l-0.11,1.86h0.45Z"/>
    <path id="BO" class="cls-1"
          d="M191,291.15l0.56-3-1.18-3-3-.06-0.62-1.91h0.45l-0.39-2.08-1.91-.45-2.31-1.41-1.74-.28-1.69-1.41,0.11-2.87-2,.28-2.53,1.74-0.79.06-1.18-.11,1.35,2.59-0.45,3-0.62.79L173,284.17l0.67,1.35-1,1.69,0.79,1.12,0.22,1.18,0.84,0.67-0.51,1.63,0.84,1.86,0.62,2.31,1.12-.22,1.29-1.52,2,0.39,0.9,1.24,0.62-1.35,1.8,0.06,0.22,0.34,0.62-2,0.79-2.36,2.7-.51h1.46l1.46,0.84v0.51Z"/>
    <path id="BR" class="cls-1"
          d="M192.69,256.45l-2.76,1-0.79-.06-1.46-2.25,0.67-1.86-1.07-2-0.79.06,0.22,0.45-0.56.62-2.87.84-0.45.28-2.7-.45,0.67,0.39,0.45,2.92-2,1.29-1.52.56-0.84-.84-0.28.17-1.24-.9-3-.06v1l0.9,0.17-1.24.67v1.12l0.9,2.14-0.67,4.27-1.41-.06-3.26,1.57-0.34,2.14-1,.45-0.39,1,1.52,2.36-0.34.67,1,0.11,0.56,0.84L170,275l1.29-1-0.11,2.42,0.73,0.17,0.9-.28,1.18,0.11,0.79-.06,2.53-1.74,2-.28-0.11,2.87,1.69,1.41,1.74,0.28,2.31,1.41,1.91,0.45,0.39,2.08h-0.45l0.62,1.91,3,0.06,1.18,3-0.56,3-0.51.34,0.45,0.9-0.11,2.25,1.63,0.34,0.62-.34,2.25,3.26,0.56-.28,0.34,2.25-0.28,1,0.79-.34,0.79,1-0.06,1.41-4.1,3.43-2.08,2.42,1-.17,1.57,1.41,0.56-.06,3.71,3.43-0.67.9L198,315.1l1-1.07,0.73-1.74,2.42-2.31,1.74-3.15,1.74-3.6L205.56,301l1.29-1.69,1.86-1.35,1.74-.51,1.12-.73,2.47-.67h1.69l0.34-1,1.24-.73,0.28-1.74,1.57-2.19,0.28-2.19,1.07-4.22-0.11-3,2-2.59,1-1.8,3-3.26,0.62-2.59-0.79-2.92-0.56-.51-2.53-.51-2-1.74-2.31-1.29-2.31.06-3-.84-1.8.51,0.28-.84-0.79-.9-4.55-1.52-1.18,1-0.06-1.57-2.76-.22-0.51-.45,1.18-1.29-0.06-1.07-0.84-.28-1.24-3.6-0.51.06-2,3.15-0.73.11-1.07-.06-0.67-.34-0.9-.34-0.73.17-0.62-.11-0.06,1.07-0.84-.11Z"/>
    <path id="BN" class="cls-1" d="M459.94,251.67l-0.62.56L460,253l1.07-.51,0.17-1.74Z"/>
    <path id="BT" class="cls-1"
          d="M423.56,213.78l-0.84-.06-1.12-.39-0.84.45-1,1.29,0.06,0.34,1.41,0.67,3.54-.22,0.11-1.07-0.62-.56Z"/>
    <path id="BW" class="cls-1"
          d="M320.38,287.32l-0.9.39-1.46.62-0.62-.67-3.54.62-0.06,5.9-1.52.06v4.95l0.39,0.28,0.9,1.63,0.22,1.69,1.12-.17,1.91-2.14,0.79-.39,1.41,0.67,1.29,0.11,1.41-1.74,0.84-.11,1-1.8,1.41-1.29,2.19-1.24-1-.79-1.18-.28-1.12-1.86-1.74-1.8-0.79-1.24-0.62-1.29Z"/>
    <path id="CF" class="cls-1"
          d="M318.36,245.77l-0.56-.45,0.17-1.8-0.9-1-0.17-.67-1,.28-0.79.62L314,244.48l-1.46.73-2,.06,0.17,0.56L309.25,247l-2.92.62-1.29.11-0.79,1.57-0.39.28L303.74,252l2.14,2.7,0.06,0.73,0.17,0.45,0.84-1.46,1-.84,1.07,0.28,1,0.11,0.11-1.07,1.46-1.29,4.55,1.57,3.15-1.69,4.1-.06,0.51-.17-0.22-.51-1.18-.62-2.08-2.42-0.84-1.12-1.07-.62Z"/>
    <path id="CA" class="cls-1"
          d="M181.95,177.12L181.38,176l-0.56.73,0.39,0.79,2,1,1.35-1.07Zm2.92-6-0.06-.45-1.57-1-2.08-.56-0.56.22,1.46,1.12,2,0.73Zm-96.26,1.46L88,171.32l-1.57-1-1.29-2-1.46-.28-2.59-.9,0.45,1.91,1.63,0.45,0.28,0.67L84.84,171l0.45,0.84L87.88,173Zm105.09-5.29,0.39-2.36-1.35.84-1,1.41-1.63,3.88-1.29,1.41,0.67,0.62-1,.84,0.22,0.67,4.72-.06,1.52,0.56-1.12,1.07,1,0.06,1.8-2,0.45,0.28-0.34,1.86,1.74,0.34,0.67-2-0.67-2.7-1.07.39,0.51-1.74L196.4,170l-0.73.56-1.41-.67,0.56-.84-1.07-.51-1,.84ZM73.54,158.45l0.17,2L76,163.62h0.62l-1.35-2.08,0.45-3-1.52.22Zm84.12-23.73-1-.79-0.28,2.25,0.67,0.28Zm-4.1-1.86,0.06-.67-2.14-.06-1.24,1.57,0.34,0.9,1.12,0.06Zm-5.12-10.57-1.12-.28-0.51,3.43-0.22,2.87-1.35,1.74,2.14-.34,0.56,2,2.19-1.8,1.57-1.86,0.9,1.57L155,130.5l1.41-1.12-1.12-1.18-1.12.28-0.11-1.69-4.39-3.37-0.79.56Zm14.51-5.85,1.18-3.54-1.24-1.18-1.41.56-0.67,2.31,0.39,2Zm-30.87-8.21-2.36-3.37-1.63-1.29-1.07,2-1.35,1.41,2.14,2,1.29-.45,2.08,1.29Zm-70.68-2.64h0v35.14l1.52,0.11,1.52,0.84L65.5,143l1.41,2,1.52-1.69,1.57-1,0.84,1.57,1.07,1.24,1.41,1.35,1,2.14,1.57,3.26,2.64,1.8,0.06,1.74-0.84,1.29h0l0.06,1.41,1.91,1.91,0.28,2.08,2,1.07-0.22,1.57L82.54,167l2.81,1,4.16,3.43h43.41l0.51-1,0.28,1.29,3.15,0.9,1.52,0.73,1.24-.28,1.91,0.62,0.62-.9,1.57-1.24,1.46,0.45,2,1.69,1.74,0.34,0.34,1.35-0.28.84,0.67,0.28-0.34.79h0l0.39,0.06,0.28-.34,0.28,0.51,3.6,0.51,1.41,0.45,1.52,2.42-0.51.73-1.29-.28L154.17,180l0.22,1.41-0.73,1.24-0.06,1.63-1,.73h0l-0.73,1.18-0.34.73,0.84,0.11,2.31-1.35,0.84,0.22,2.53-.84h0l-0.11-.62h-0.06l-1.12-.11,0.45-.73,2.87-.84,0.67,0.39,1.24-.62v0.06l2.31-1.91h5.23l0.17-.56,1.74-1.46,0.45-1.74,1.18-1.74,0.51,0.62,1.07-.39,0.67,0.67v3.09l1,1.24,1.74-.28,2.47-.06-2.7,1.8,0.06,1.86,1.18,0.17,1.74-1.57,1.57-.9,3.43-1.29,1.91-1.46-1-.79-0.11-1.63L185,178.8l-2.59.34-2-1.12-1-4.22,1.46-1.57L179.47,171l-2.31.22-3.26,2-2.53,3-1.35.39,1.8-2.14,2.25-3.09,2-1.07,1.29-1.74,3.94-.17,3.32,0.51,2.64-.39,2-2,2.59-.9,2.25-1.86-0.11-2.87-0.62-1-1.24-.34-0.62-2.25-1-.84-2.47-.73-1.41-1.57-2.08-1.57,0.62-1.8-3.77-7.31-1.24-2.76-1,1.46-1.52,3.37-2.25,1.63-1.12-1.74-1.41-.45-0.51-3.88,0.06-2.7-2.76-.22L169.13,137l-3.37-3-1.29.9-4.27-1.24-1.07.79,0.51,5.12,0.67,2.87-1.86,3.2,1.91,2.25,1.07,2.47,0.11,1.91-0.84,2-1.74,1.91-2.47,1.29,1.12,1.41,0.79,4.1-0.84,2.59-1.18.79-2.31-2.36L152.93,161l-0.51-2.64,0.28-2.36-4.27-.45-1.63-1.18-2-.79-1.12-1.35-1.57-1.07L139.21,150l-2.19.56-1.41-5-2.31-.51,0.11-3.6,0.62-2.47,1.69-3.65,1.91-2.76,1.8-.45,0.11-2.25,1.24-1.52,2.25-.22,1.8-2.42,0.45-1.63,1.52-3.2,0.45-2,1.63,1.18,2.19-.62,3-2.76,0.22-2-1.12-2.19,1.18-2.25-0.11-2.14-2.08-2.19-2.31-.67-2.19-.34-0.11,4.84-1.12,3.65-1.63,3-1.52-2.76,0.45-3.15-1.86-2.81L139.83,111v-4.44l-2.92-.9,1.41-2.25-2.14-5.34-1.57-2.19-2.08-.79-1.86,3.6-0.11,5.17,1.8,1.86,1.69,2.76-0.73,4.27-1.24-.11-1,3.26v-3.88l-2.42-1.46-1.41.73,0.17,2.59-2.25-.11-2.42.67L120,112.62l-1.74.34-1.57-2.31-1.24-1-3.15.62-1,1.46,1.57,1.8-1.69,2.08-1.69-2.47-1.35.73-4.22.51-2.81-.9,2.19-2.08-2.08-2.19-1.52.28-2.14-.73-3.65-1.63-2.36-1.86L89.62,105l-0.56,1.29-1.91.73-0.22-3.43-2.08,3-2.64-4-1.07-.51-0.34,2.19-1.18,1.07-1.07-1.91L76,104.52l-2.36,2-2.31-.56-1.91,1.41-1.35,1.8-1.63-.39L64,106.61Zm41.83-16.76-1.57-1.07L97.49,91l-1.07,2.08-1.29,3.77,2.7,1.29,2.42-.06L96.65,100l0.84,1.74,2.19,0.11,3.32-.39,3,1.07-2,.79-2.19-.22-3.43,1.29L100.3,108l1.41-.51,2.14,1.18,0.84,2,6.75-1.07,2.92-1.46,1.8-.28,2.7,1.18,2.81,0.67,0.51-1.57-1-1.69,2.59-.34,0.17-2-2.81-2.19-2.64-2.36L118,96.15l-1-4.95-1.74-2.14-1.57-.84-1.35.79,1.12,5.34-0.79,2.08-1.29-5L110,89.68l-1.74,2.7L106,89.74l-3.49,1.57Zm15.07-1.63L117.12,86l-2.08.22-0.51.79,2.42,3.77Zm43.91,1.74-2.7-3L156,85.35l-0.73.39-0.06,2,1.74,2.87,0.45,0.34,1.69-.73,3.32,0.28Zm-16-.28,1.12-3.54-4,1.46-1.63,2.19-1.18,4.67L141,98.51h2.19l-1.63,2.19,1.29,1.63L145.4,103l3.32,1.35,5.68,1,2.81-.56,0.84-1.35,1.24,1.57,1.35,0.28,1.63,2.76-1,1.12,3.15,1.46,2.36,2,1,3.2-2,3.88-0.56,1.91L165.7,123l-3.2.51-2.7.06-1,2.7,1.29,1.24,4.5-.56v-1.07l4.61,3.6-0.56,1,1.91,1.69,3.37,2,4.22,1.35-0.34-1.24L174,129.21,177.9,132l2,0.9,0.56-2.47-1-3.49-0.62-1-2.14-1.69L175,122.07l0.22-2.19,2-.51,2.47,3.65,1.91,1.57,2.76-4.39,0.51-2.76-2.47-.28-2.25-3.71-2.47-.9-3.65-2.76,2.87-2-1.46-4.22-1.35-1.86-3.77-1.86-1.63-3.09-2.92,1.12-0.22-2.14-2.14-2.42L160,90.69l-1.46,2.08-3.2,1.57L155.52,91l-2.7-5.57-3.94,2.25-1.46,4.27ZM124.76,84.9l-1.86,2.7,1.74,3.49-3.2-.67-0.06,1.69L125.27,96l1.07,1.86,1.52,0.39,2.53-1.91,0.28-4.55-2.36-2.25L129.77,87l-0.39-1.63-2.76.73Zm11.13,5.79,1.86-1,2.31-4.89-3-1.35-3.26-.22-1.57,1.52-0.79,2.36v2.7l1,4.55,1.8,0.17Zm-42.51,7V95.58L95.3,92l3.82-3.71,2-1.35L99.4,84.62,97.89,83l-4-.34-2.25-1.18-5.29.9,1.52,3.49-1.35,3.6-1.74,6L88.38,98l0.84,2.14Zm41.89-19.45-0.56-1.91-1.35-2.19-2.25,1.69-0.84,2.76,1.91,1.57,2.25,0.45Zm-7.65-11.08-0.11.9-2.19-.39L123,69.94l-1.69-.22,0.11,4.95,2.53-.51-0.06,3.6,1.69,1,2.59-.62,0.73-4.61-0.06-3.32ZM112.5,70.62L112,67.47l-1.63-.79L109,69.16l2.25,6.13-2.7-.45-2.76-3.77-4.39-2.25-1.46,1.86-2.14,6.19L100,77.93l7-.73-3.26,2.64L104,81.75l2.36-.11,3.94-2.53,5.29-1,1-2.92-0.28-3.09-1.63-.28-1.41,1.07Zm21.09-6.07-3.2-.45-0.56,2.81,1.8,2.08,3.2,0.79,1.57,2.81,0.17,3.09L137.13,79l4.16,1.91,2.53,0.73,3.2-.11,4.5-.9,2,0.73,2.31-1.24,1-1.57L156.48,76l-1.69-2.36-2.53-.45-3.15.56-2.47,1.35-4.39-.79-1-1.52-1.8-1.46,0.34-2.47-1.35-2.19h-3.09ZM100,60.67l-2.14,1.07-2.42-.11-3.2,4.55-0.51,6.41,2.47-1,2.92-2.81,1.46-.34,1.18-2.36Zm34.86,0.9,0.17-.84L134,59.37l-3.15-.11,0.39,2,2.92,0.45Zm-25.47-1.29,0.51-2.19-2.19-1.18-2.25.79L104.24,60l2.31,2.36Zm0.84-6.86-2.87-2-1.57,2.36v1.12h2.59Zm21.54,4.22,0.45-2.76-1.86-2.76-0.9-.51-2-.34,0.11,3.26,0.67,2.87,1.29,1.74Zm-6.58-2.08L124,51.78l-4.22-3-3-1.12,0.11,3.15,1.91,1.91L117.28,55l3.49,0.28,2.59,2.47,2.53,0.84Zm20.35-10.91-1.24-5.9-5.17-3.82-2-5.34-3.6.51,0.67,2.31-1.57.67-1.07,3-1.07,4.16,1,4,1.74,2.87,2.87-.06-1.24,2.25v2.92l1.69,3.2,3.2,1,2.76-.56,2.87-6,2.14-2.47ZM174.41,8.32l-6.75-1.69-4.5,2.19-0.84-1.41L157.54,8l-2.81,1.41-2.08,2-1.18,6.52-1.69-3.32L147.87,14l-2.31,4.44-3,1.86-1.8.39-2.31,2.14,0.34,3.71,1.8,3,1.29,4,2.76,3.26,5.45-.62,3.49,1.07-2.42,3.37-1.24-1-4.27-.39,0.67,4.61,2.19,3.37L148,50.15l-2.76,1.91-1.24,3,2.53,1.46,2.14,4.78-4.16-3.15-1,.51,0.79,5.23-2.87,1.57,0.17,3.26,2.92,0.34,2.31,0.79,4.55-1,4,1.8,4.16-4L159.62,65l-2.64.28-0.22-1.57,2.19-2.14,0.73-2.87,2.42-2.14,1.46-2.64L162.27,50l1.07-1.46-2.14-1.07,4.72-.9,1-1.74,3.2-1.46,2.64-7.48,2.53-2.76L179,26.93l-3.37.06L177,24.57l3.77-2.25,3.82-4.95,0.06-3.2-2.87-3.37L178.4,9.16Z"/>
    <path id="CH" class="cls-1"
          d="M294.51,174.19l-0.34.51h-1.35l-0.45.39-1.8,1.63v1l0.73-.34,0.56,1,0.67,0.51,2.64-.56,0.34-.9,1.18,0.28,0.67-.39,0.11-1-0.79-.06-0.73-.39,0.22-.56-0.06-.39Z"/>
    <path id="CL" class="cls-1"
          d="M176.83,362.16l-1-.06h-1.69v-5.9l-1.12-.28L171.6,357l-0.51,1.8L170.31,360l-2.08-1L166,357.33l-1.29-.56,2.14,2.92,3.54,2.92,1.63,0.39,2.81,1.12,1.35-.84Zm-4.1-75-0.39.84-0.79.39,0.34,2.31,0.11,2.7-1,7.37-0.28,3.37-0.9,2.14,0.17,2.19L169.52,310l0.34,2.76-0.67,2.76-2,6.19-0.67.06L166.6,324l0.45,2-0.73,1.41-1,6.86,1,0.28,0.51-2.64,1.07,0.56L167,336.91l-1.74-.79-0.51,3.65-1.46,2,2.36,0.67-1.63,1.8-0.67,2.25,0.22,4.1,0.79,1.63L164,353.67l0.51,1.57,3.71,3.26,1.74,0.84,0.67-.06,0.22-2.42,2.14-1.57h1.41l-1.46-.39-3.77-.34-0.62-1.46,0.06-1.86-1,.17-0.56-.9-0.11-2.59,1.18-1.07,0.51-1.52-0.17-1.18,0.84-2,0.56-3-0.39-3,0.51-.9-0.73-.84L168.85,332l0.62-.45L169.18,329l0.79-3.88,1-.73-0.45-1.91v-1.8l1.18-1.24-0.06-1.57,0.9-1.86v-1.74l-0.39-.34-0.73-3.2,1-1.86-0.17-1.74,0.56-1.63,1-1.63,1.12-1.07-0.17-4.1,1.69-.84,0.56-1.74-0.17-.45-1.12.22L175,293.62l-0.84-1.86,0.51-1.63-0.84-.67-0.22-1.18Z"/>
    <path id="CN" class="cls-1"
          d="M453.3,229.69l1.07-1.69-0.34-.62-2.59.45-0.79.73,0.06,1.41,1.29,0.51Zm26.43-62.47L477.65,162l-1.35-1-2.36-.79-2.08.06-1.91.45-1.29,1.29,0.84,0.62v1.41l-0.84.79-1.41,2.64v1.07l-2.19,1.52-1.86-.9-0.79,1.8-1.12,2.36,0.39,1,0.9-.28,1.52,0.34,1.18-.84,1.24,0.73,1.41,1.63-0.17.79-1.24-.28-2.25.28-1.12.62L462,178.8l-2.36.84-1.57,1.18-2.47-.62-0.84,1.41,0.73,1.57L453.3,185l-1.8.73-2.36.06-2.53.73-1.8,1.12-0.67-.67h-1.91l-2.31-1.29-1.52-.34-2.08.28-3.2-.45-1.74.06-0.9-1.29-0.73-2-1-.22-1.91-1.35-3.94-.67-0.56-1,0.62-2.64-1.07-1.86-2.25-.9-1.29-1.24L418,170.54l-0.62.17-1.18,1.57-1.29.22-0.06,2.36-0.84,1-3.09-.73-1.12,4-0.79.51-3.09.9,1.41,3.77-1.07.56,0.11,1.18-0.22.45-2.47,1.12-0.56.84-2,.22L400.5,190l-1.63-.28-2.59,1.35,0.22,0.45-0.45.45,0.39,1.86,0.51-.22,1,0.45-0.06.79,0.22,1.12,0.28,0.56,1.12,0.9,0.45,1.46,2.59,0.79,1.69,2.25L404,203.49l0.62,1-0.06,1-1.12-.22,0.45,2,1.52,1.18,2.19,1.29,0.62-.45,3.71,2,0.51,0.84,2.47,1.12,1.74,0.39,1.8,0.17,1-.39,0.11,1.41,1-1.29,0.84-.45,1.12,0.39,0.84,0.06,0.67,0.45,1.24-.22,1.41-1.29,1.8-1.12,1.29,0.45,1.12-.73,0.73,1.12-0.51.73,1.69,0.28,0.9-.11,1.18,1.46v2.76l-1.46,1.46-0.17,2,1.63-.28,0.39,1.57,1,0.34-0.45,1.41,1.86,1,1.12-.51,0.06,0.67,0.11,0.39,0.84,0.06-0.22-1.91,0.79-.22,0.84-.39,2.76-.17,1.35-.9,0.73,0.62,1.41,0.28-0.22,1,0.73,0.67,1.57,0.45,0.73-.28L452.4,225l-0.39.67,0.39,1.24,0.84-.11,0.51-1.74,1.63-.28,2.19-.84,0.9-.84,0.56,0.56,1-.73,1.74-.17,4.33-3,1.46-2.08,2.42-4.22,0.84-.17,0.62-2.87-0.9-.56-0.39-1,1-.51V207l-2-3.09-0.62-1.86L466.74,201l0.79-1.35,1.52-1,0.73-1.07,2.19-.56-0.22-1-1-.06-1.41-.79-1.74,1.41-1.24-.56-0.06-.9-1.29-.34-0.84-1.35,0.79-1,1.52-.11,1-1.29,1.74-1.41,1.35-.73,0.84,1.07-1.24,1.35,0.34,0.79-0.84,1,1.69-.56,1.12-1,2.19-.56,1.29-1.29,1.74-1.12,1.07-1.46,0.73,0.67,1.35,0.06-0.22-1.12,2.42-.9,0.62-1.18,1,1.24h0v-1.07l0.79-.06,0.22-2.53-0.39-1.86,1.35-.79L488.5,180l1.07-2.19,0.56-2.47,0.62-.84,0.84-2.08-2.59.67-1.35.9H485.3l-0.62-2.19-1.86-1.69-2.7-.79Z"/>
    <path id="CI" class="cls-1"
          d="M272.19,243.3l-0.62-.51-1,.62-1.63-.22-0.22.17-0.34.11,0.62,2.47-0.62.73-0.06.62h-0.22l-0.06.45,1.41,2.64-0.22,2.08,0.28,0.06,2.64-1,1.86-.28,2.08,0.28h0.73l-0.62-2,0.39-1.8,0.67-1.35-0.39-2.25-1.07-.39-2,.11-0.28-.51-0.67-.34Z"/>
    <path id="CM" class="cls-1"
          d="M304.47,240.15l-0.62-1-0.45.11-0.06.51,0.62,0.62-0.22.84-1.29,1.24-1.29,3.32-0.84.67-0.73,2.08-1.07.51-2.87.34L294.51,252v0.45l1.41,1.18,0.62,1-0.22,1.24,2.53,0.06,0.73-.11,1,0.22,0.9-.22,0.17,0.11,2,0.06,1.24,0.39,1.24,0.39,0.11-.84L306,255.5l-0.06-.73-2.14-2.7,0.11-2.36,0.39-.28,0.79-1.57,0.22-.45L303,244.48l0.34-.73,2,0.06-0.84-1.46,0.06-1.07Z"/>
    <path id="CD" class="cls-1"
          d="M310,253.87l-0.11,1-1,3.2-0.39,2.47-1,.73-1.41,2.31,0.06,1.29L304,267.08l-2.08-.11-0.39-.17-0.56.34-0.28.39-0.06.67-0.39.17,0.22,0.51,1.63-.39h4.61l0.39,1.18,1.41,2.25,3-1.46,3.6,0.22,0.34,1.57-0.22,1,0.62,1.57-0.06,1.91,2-.34,0.73,0.11,0.56,0.06,1.8,0.62,0.51,0.73,1.24,0.22,1-.51,0.34,0.84,1.18,0.22,1.24,1.57h1.18l-0.11-1.74-1.91-.62,0.45-3.49-0.34-.67,0.45-1,2.81-.39L329,272l-2.14-3.26-0.17-1.52,0.28-2.47h0v-0.28l-0.39-.73,0.17-.84,0.22-.11,0.06-1,0.45-.45v-1.18l0.34-.62,0.11-1.24,0.34-.73,1.69-1.8-0.62-.22,0.11-1.8h0l-1.35-1-0.39-.67-0.84.34L325,252.4l-1-1.29-0.51.17-4.1.06L316.27,253l-4.55-1.57-1.46,1.29Z"/>
    <path id="CG" class="cls-1"
          d="M309,253.75l-1.07-.28-1,.84-0.84,1.46-0.11.84-1.18-.34-1.24-.39-2-.06-0.11.67L302,257.3l1.57,0.17-0.67,1.8,0.73,0.9-0.51,3-1.35-.06-0.84-.73-0.11.67-1.57.56,0.56,1-1.18.84,1.29,1.63,0.62-.67,0.45-.28,0.56,0.56,0.39,0.17L304,267l2.19-2.25-0.06-1.29,1.41-2.31,1-.73,0.39-2.47,1-3.2,0.11-1h-1Z"/>
    <path id="CO" class="cls-1"
          d="M170.31,240.32l-1-.51-2.59,1.91-1.24-.11-2,1.12-1,2-1.18,1.12-0.79-.06,0.17,1.18-0.28.45-0.67.67,0.62,0.84,0.56,4.44-1.24,1.8-0.79.11-0.9,1.46,0.22,0.51,2.25,1.52,1.35,0.22,1.18,0.28,0.67,0.39,0.39-.17,2.25,1.86,0.9,1.63,1.18,0.17,2.36-.28,1.18,0.73-1,1.57,0.45,0.06,0.79,0.84,0.67-4.27-0.9-2.14v-1.12l1.24-.67-0.9-.17v-1l3,0.06,1.24,0.9,0.28-.17L176.44,256l-1-.9,0.79-.79-0.79-1.86,0.73-2.47-0.56-.28L173,250l-1.12-1.35-2.92-.06-0.73-2.25-1.35-1.18,0.62-2.08,1.46-1.86,1-.28Z"/>
    <path id="CR" class="cls-1"
          d="M147.2,242.23l0.45,1.52,1.46,0.06,0.11,0.45,1.8,1.86,0.84,0.34,0.17-.9,0.22-.17,0.28-1-0.73-.67-0.62-.62-0.39-.84-0.39.34-2.81-.56Z"/>
    <path id="CU" class="cls-1"
          d="M157,222.88l-1.46-.56-5.62.9-0.34.62L151,223.9l1.12-.9,1.52,0.11-0.06.73,2,0.28,1.91,0.79,0.9-.06,2.53,2-1.07.9,5.4-.34,0.17-.39-3.65-1.52-2.87-2.19-1.46.17Z"/>
    <path id="_-99" data-name="-99" class="cls-1"
          d="M334.1,200.56l1.07-.84-1.41.56-1.35.45H332.3l1-.06,0.22,0.22,0.67-.06Z"/>
    <path id="CY" class="cls-1" d="M331.57,200.79l0.34,0.79,0.79,0.22,1.57-.79-0.06-.17-0.67.06-0.22-.22-1,.06Z"/>
    <path id="CZ" class="cls-1"
          d="M304,166.54l-1.91.67-1.69,1.12,0.45,1.74,0.79,0.56,0.9,1,1.18,0.79,2.64-.39,0.73-.11,0.73,0.45,0.22-.51,0.67,0.06,1.57-1.63h0.45L310,169.13,308.8,169l-0.17-.79-1.07-.28-0.22.62-0.73-1.18-1.18-.22-0.73-.79Z"/>
    <path id="DE" class="cls-1"
          d="M302.56,158.67l-1.74-1.07-0.9.73-1.57.51v-1l-1.57-.62V156.2l-1,.39-1.18-.34,0.06,1.52,0.34,1-1.07,1.29-0.28-.56-1.29.17-0.28.56,0.28,0.9-0.79,3.32h-1l0.28,2.64-0.17,1.63L291,169.3l-0.11,1.07,0.73,0.62,2.25,0.45-0.79,1.63-0.22,1.69h1.35l0.34-.51,1.69,0.73,0.45-.11,2.36,0.11,1.86-.34,0.39-1.46,0.56-.28,0.56-1.07-0.9-1-0.79-.56-0.45-1.74,1.69-1.12,1.91-.67,0.67-.28L304,164.86l-0.84-3.15,0.45-.67-0.34-1.35Z"/>
    <path id="DJ" class="cls-1"
          d="M347.88,240.88l0.9-.39,0.06-.67-0.39-.51-0.45.39-0.67-.11-0.56.73L346.36,242h0.84l0.39-.11,0.34,0.28,0.56-.84Z"/>
    <path id="DK" class="cls-1"
          d="M301,154.51l-0.51-1.41-2.31.9,0.22,1.12,1.63,1.52Zm-6.52,1.8,1.18,0.34,1-.39-0.45-1.35,1.12-2,0.84-.73L297.66,150l0.06-1.52-1.8,1.63-1.35.17-0.73,1.63,0.06,2.87Z"/>
    <path id="DO" class="cls-1"
          d="M169.52,231.21l0.39,0.28,3.49-1.35,0.73,0.34,0.56-.67-1.41-1.18-0.84.06-1.63-1h-1.24l-0.17.28v1.52l-0.39.28,0.39,1Z"/>
    <path id="DZ" class="cls-1"
          d="M293.33,197.36l-0.62-.45H291l-1.46.79-0.79-.28-5.23.51-2.47,1.41-1.69.34-1.52,1.07,1.35,5.45-2,.34-1.63.84-0.06,1.35-1.8.73-0.62.9-2.81.73-2.53,1.29v2.19l-0.06.34,5.85,4.22,5.29,3.71,5.29,3.65,2.08,1.52v1.07l1.74-.17,2.19-.73,4.5-3.26,5.34-3.2-0.67-1.07-1.24-.79-0.73.34-1.52-3,0.62-.73-0.06-2.87,0.17-2.31L296,209.73l-0.67-3.26-2.25-2.31L293,202.76l1-1.07,0.39-1.57-0.22-1.86,0.34-1Z"/>
    <path id="EC" class="cls-1"
          d="M163.05,259.21l-1.18-.28-1.35-.22-2.25-1.52-1.07.62L155,261l0.9,2.53,0.62-.73,0.34,0.67L156,264.66l-0.22,1.57,1.91,0.84,0.9-.62,1.24-2.42,1.86-.62,1.69-1.63,0.51-1-0.22-1.18Z"/>
    <path id="EG" class="cls-1"
          d="M320.49,207.42l-0.56.9-0.17,1.91,0.45,1.46v12.54h18.5l-0.28-.34-1.8-1.52,0.28-1.41-1.41-1.91-3.2-6.41-0.51-2,1.12,2.59,1.24,1.35,0.34-.28,1.18-3-0.17-.45-0.84-2.64h0l-0.79.45-3.26-.84-3.15.45-1.18.56-3.77-1.29Z"/>
    <path id="ER" class="cls-1"
          d="M341.13,230.81l-0.79,1-1.12.28-0.51.51-0.17,1.07L337.87,236,338,236.6l1.8,0.34,0.51-1.18,1,0.73,1.29-.06h1.07l1.35,0.62,0.39,0.56,0.67,0.51,0.62,1,0.51,0.51,0.67,0.11,0.45-.39-0.79-.51-2.19-2.42-3-2.31-0.45-1.52Z"/>
    <path id="ES" class="cls-1"
          d="M275.73,183.92l-1.29.11-1.69-.39h-2.08l-1.91-.39-2.19,1.57,0.62,0.9-0.06,1.52,1.18-.84,0.39,1,2.08-.17,0.45,1.07-0.73.56-0.34,2.87-0.67.17,0.62,1.18-0.56,3.82,1.46,0.28,1.8,1.91,1.57-1.41h3.49l1.12-1.52,1.18-.39,0.34-1.29,0.9-.9-0.62-1.12,0.62-1.63,1.12-1.86,2-.45,1.46-1.41L286,185.89l-1.8.28-1.74-1-0.56.45-2.87-1-0.62-.84Z"/>
    <path id="EE" class="cls-1"
          d="M319.14,148.33l1.35-.51,0.67,0.34,1.35,1.07h1.29l0.67-.9L324,145.57l1.12-1.74-0.22-.56h0l-1.63.11-1.69-.51-2,.45-2,.84,0.11,1.74,1,1.07,0.56-.39Z"/>
    <path id="ET" class="cls-1"
          d="M338,236.6L337.81,238l-0.62,1.57-1,.79-1.57,2.31-0.45,1.63v1.41l-1.07.51-0.51.9,1,0.11,1.8,1.74,0.9,1.69,0.79,0.28,3.6,2.7,2.25,0.28,1.91-1.29,0.62,0.51h1.07l0.45-.51,1-.06,1.41-1.12,2-.06,4.39-4.72h-1.29l-5.12-1.86-0.62-.56-0.56-.79-0.56-.9L348,242l-0.34-.28-0.39.11h-0.84l0.39-1.69,0.56-.73-0.51-.51-0.62-1-0.67-.51-0.39-.56-1.35-.62h-1.07l-1.29.06-1-.73L340,236.77Z"/>
    <path id="FI" class="cls-1"
          d="M326.51,105.31l-2-1.8L322.07,105l-0.79,3.26-1.46,1.91-1.69-1.07-2,.22-1.74-2.31-1,1.18,2.08,2.14,2.42,2.87,0.06,6.19,0.51,1.52,2.19,1.8,0.17,1.57-1.07.79L316.22,129l-1.41,2.19-0.73,2,0.73,3-0.34,3.2,1.52,1.07,0.9,1.69,2.53-.67,2.76-1.12,2.81-.22h0l4.78-6.07,0.56-1.74L328,130l0.62-2.31-1.41-2.7,1.07-3.2-1.8-4.44,1.46-3-2.36-2.76,0.22-3Z"/>
    <path id="FJ" class="cls-1" d="M559.4,286.82l-1.69.62,0.17,0.73h1.8Zm1.57-.9,1-.39v-0.79l-2.19,1,0.22,0.62Z"/>
    <path id="FK" class="cls-1"
          d="M189.93,352.32l-1,1-1.35-.62-1.86,1.52,0.79,1.12,1.35-1.12,0.67,0.9,2.08-.79,0.45-.9Z"/>
    <path id="FR" class="cls-1"
          d="M200.45,252.18l-1.63-1.29-1.12-.39-0.51-.17-0.79,1.35,0.11,1.07,0.62,0.9-0.28.67-0.11.73-0.39.67,0.67,0.34,1.07,0.06,0.73-.11,2-3.15Zm95.7-65.45-0.28-1.86-1.29,1.57,0.34,1.41,0.73,0.45Zm-12.37-20-0.45,2-3.65,1.86-1.46-1,0.51,2.7-2.64-.62-2,.51,0.17,1.69,2.36,0.9,1.12,1.18,1.63,2.36-0.28,4.39L278.26,184l0.62,0.84,2.87,1,0.56-.45,1.74,1,1.8-.28,0.17-1.29,2.25-.67,3.09,0.56,1.41-1.24,0.17-1-0.84-.28-0.39-1.69,0.56-.67-0.45-.84,0.06-.62-0.56-1-0.73.34v-1l1.8-1.63,0.45-.39,0.22-1.69,0.79-1.63-2.25-.45-0.73-.62-0.45.06-0.34-.22-1.35-1.12-0.79.17-1.8-2.14-1-.9Z"/>
    <path id="GA" class="cls-1"
          d="M301.43,255.72l-0.9.22-1-.22-0.73.11v1.86H296.6l-0.51.11L295.75,259,295,261.12l1,1.63,1,1.29,1.63,1.57,1.18-.84-0.56-1,1.57-.56,0.11-.67,0.84,0.73,1.35,0.06,0.51-3-0.73-.9,0.67-1.8-1.57-.17-0.45-.79,0.11-.67Z"/>
    <path id="GB" class="cls-1"
          d="M269.44,155.86l0.34,1.46-0.34,1.41,2.14,0.51,0.84-1.86-1.69-1.69Zm7.14-10-1.86.22-1.24-.22-1.24,2.42-0.56,3,0.79,1.46,0.11,2.7,0.84-1.29,0.51,0.79-0.56,1.24,0.39,0.73,3,2.14-0.22,1.52-2.31-.22L273.94,162l0.84,1.41-1.63.79,1.52,2-2.31,2.59,0.84,0.51,1.07-1,1.46,0.28,1-1.12,0.73,0.51,2.64-.67h2.08l1.41-1.29L283,164.69l0.79-.73,0.17-1.63-1.91-.51-1.41-4-1.07-.45-3.15-3.71,1.41-2.53,0.39-2.36h-1.69l-1.57.39Z"/>
    <path id="GE" class="cls-1"
          d="M343.77,183.75l-0.17.28,0.56,0.67,0.84,0.22,0.9,0.79,0.39,1.46-0.22.9,1.69-.11,1.52,1,2.19-.34,0.39-.34,2.19,0.45-0.79-1.12,0.39-.28-1-.51-0.45-.84-1.46-.45-1,.34-0.28-.39-2.14-1-2.31-.34Z"/>
    <path id="GH" class="cls-1"
          d="M280.57,241.95l-3.88.22-0.06.9,0.22,1.18,0.39,2.25-0.67,1.35-0.39,1.8,0.62,2,1.41,0.45,1.41-.45,0.84-.56,2.42-.9-0.9-2.31,0.34-1.41-0.56-3-0.67-.84,0.11-.51Z"/>
    <path id="GN" class="cls-1"
          d="M263.08,239.87l-1.29.11-1.12-.39h-0.73l-0.06.56-0.06.67-1,.51-1.18.73,0.45,0.28,0.22,0.34,0.17,0.67,1.41,1.12,0.67,1,2.08-1.8h1.24l1,2.7,0.45-.11,0.34-.06,1.69,1.74,0.34-.62,0.45,0.06h0.22l0.11-.67,0.62-.73-0.62-2.47,0.34-.11-0.45-.45-0.06-1.41-2.81-.73-2-.39-0.11-.56Z"/>
    <path id="GM" class="cls-1" d="M255,238.63l1.41,0.06,1.24-.62,0.67,0.34,1.35-.34-1.91-.62-2.53.45Z"/>
    <path id="GW" class="cls-1"
          d="M257,239.47l-0.39.17-0.51-.06-0.84.28,0.11,0.34,0.84,1,0.67,0.11,0.84,0.67,1.18-.73,1-.51,0.06-.67,0.06-.56Z"/>
    <path id="GQ" class="cls-1" d="M296.31,255.78l-0.56,1.74,0.28,0.22,0.51-.11h2.25v-1.86h-2.47Z"/>
    <path id="GR" class="cls-1"
          d="M318.19,199.66l-0.28.79,1.91,0.67,2.25-.17,0.17-.56-3.2-.11ZM322,187.4v1l-1.41.17-1.12-.73-1.24.56-1.18-.06-0.28.06-0.28.34-0.84-.06-0.62.45-1,.17-0.06.56-0.51.28-0.11.67-0.73,1,0.11,0.56,1.69,3.37,0.56,1.57,1.29,0.84h1l-0.62-1.74,1-.22-0.45-1,1.46,0.51V194.6L317,193.08l0.56-.45L316.72,190l0.84,1.07,1.69-.34-1.07-1.12,1.91-.56,0.79,0.17,1,0.06,0.39-.22,0.51-1.29Z"/>
    <path id="GL" class="cls-1"
          d="M226.54,1L221,2.36l-2,5-5.45-.62-5.23,7.59-0.22,5.06,3.71,6-3.26-3.54-2.19-.9-3.71-4.33-4.16,6.3-1.69-3.49-4.78.11-4.78,1.8-3.71,2.92,0.67,4.78L182,30.19l-5.4,6.86-1.35,3.71,4.22,3.2-0.62,3.15-5.74,4-5.9,3.82-0.22,3,3.54,3,6.69,1.86-3.15.39L170,65.39l2.7,4.27,1.8,2.08,3.82-.45,4.16-.28,3.32,0.45,4.16,3.71v2.59l2,2.31L195,89.91l1,2L194.2,96.6l1.29,1.24,1.57-.67,4.1,4.72-3.2-1.24-1.46.06-0.62,2.47,0.11,3.09,1.91,1.46,4-2.87-0.34,3.49-0.62,1.8-2.36,1.57-1.52,4.84L198.2,118l-0.56,2.87,2.14,3.49,0.22,3.26,0.79,2.31,2.7,4.27,1.07,3.2,1.52,1.8h3.09l2.31,2.59,2.19-.17,1.52-5.79-0.62-2.64,2.53-2.76,0.79-2.31v-2.53l1.35-2.31,4.33-1.8,1.07-.17,3.37-2.7,2.19-4.27,1.63-1.57h1.74l4.55-1.46,4.22-3.43,4.16-3.94-6.24-.45,1.8-2.47-0.51-3.26,3.15,4.61,2.76-.9-0.62-3.88-2-3-2.08-1.29,0.79-1.41L246.61,94V91.65l-2-3.6h2.19l2.19-.84,0.51-2-1.8-2.31,3.49-.39-2-5.12,1.69-.56-0.56-5.57-2.87-3.49L250,65.67l2.42-.28-1.86-4.61-0.06-8.49,1.24-5.34,1.8-6.41-3.6-.45,5-1.57,0.9-2.19,6.35-7-0.9-4.5-4.67-2.14-7.59,4.22-4,3.88,1.69-6.07-1.29-4-3,3.43-4.72-3.82-5.51,1.24-0.79-2,8.38-1.12,6-.51,2.87-4.61L239,2.75Z"/>
    <path id="GT" class="cls-1"
          d="M140.79,231.09h-1.46V232l0.84,1.91h-2l-0.73,1.29v1.12l0.84,0.67,0.73,0.34,1,0.06,0.79,0.28,0.06-.22,0.73-.79,0.34-.11,0.34-.39,0.73-1.07,0.73-.62-0.45-.22-0.11.22-0.51-.28h-0.45l0.11-1.86V231Z"/>
    <path id="GY" class="cls-1"
          d="M191.51,249.48L190,247.85l-1-1-1-.56-2.19,2.64,0.06,0.73-0.45.45,1.07,1.18,0.79-.06,1.07,2-0.67,1.86,1.46,2.25,0.79,0.06,2.76-1,0.39-.06-1-1.35-1.41-2,1.12-1.57,0.22-1.41Z"/>
    <path id="HN" class="cls-1"
          d="M151.19,235.25l-1-.62-1.46-.56-4.89.51-0.17-.06-0.73.62-0.73,1.07-0.34.39,0.45,0.11,0.84,0.79,0.67-.17,0.45,1,0.45,0.11,0.28,0.51,0.9-.45-0.06-.79,1.46-.11,2.08-1.24,2-.62Z"/>
    <path id="HR" class="cls-1"
          d="M307.05,177.23l-1.24.62L305.14,179v0.62l-2.53-.11-0.06.06,0.45,1.52,0.51-1,1,0.34,0.45,1.8,1.29,1.57,3.82,2.19h0l0.17-.34-1.46-.79-3-3.88,0.34-.9,0.56,0.51,3.49-.17,0.73,0.51h0l0.62-.84-0.51-.62-0.39-.84h0l-0.56.34-1.29-.45-1.18-1Z"/>
    <path id="HT" class="cls-1"
          d="M168.06,227.72l-1.29.39,1,0.28,0.67,1.35-0.56.39-2.59-.34,0.67,1.07,2.42-.28,1,0.28-0.39-1,0.39-.28v-1.52Z"/>
    <path id="HU" class="cls-1"
          d="M307.73,173.52l-0.11,1h-0.9L307,175l-0.51,1.46h0.28l0.28,0.79,0.51,0.28,1.18,1,1.29,0.45,0.56-.34h0l1.18-.62,1,0.11,1.24-.45,1-1.52,0.73-1.57,1-.51-0.11-.62-0.84-.62-0.34.22-2.19-.56-0.39.56-4.27,1.07Z"/>
    <path id="ID" class="cls-1"
          d="M469.5,275.4L468.2,274l-1.46.34,2.08,1.12Zm6.8-1.35-0.06-.51-0.17-.34-1.52.62-0.62,1.69,1.35-.34Zm-11.19-2-1.29.56-0.56.9L467,273l-0.39-.67Zm7.82,0-3.43.22-1.24.34v0.56l2.08,0.17,2.36-.45Zm-22.27-2.08-2.14-1.29-1.91-.11-1.07,1.52,1.41,0.11,0.28,0.67,2.87,0.67,1.8-.06,1.8,0.62,4.5,0.34,1.74,0.62,1.8-.62-1.91-1-2.36-.28-0.56-1-2.87-.73-0.34.67Zm40.71-.9v-0.73l-1,.62,0.17,1.18Zm-11.7-4.33-0.39-.51-1.57.06,0.28,0.67,1.07,0.28Zm5.06-.56-1.74-.45-1.91.06-0.39.84,3.26,0.06,1.29,0.62Zm16.47,9.45V263.37l-1.69-.28L497,262h-1.41l-1.8,1-1.29,1.63-1.63-1-0.67-3.09-2.53-.62-0.79.51-2.14.39,0.67,0.79,1.41,0.28,0.62,1h2.31l-2.64,1,2.14,1.86,0.45-.79,2.36,1.46,1.29,0.11,3,1.35,0.73,1.29,0.39,1.69-1,.45-0.67,1.29,2-.06,0.39-.45,1.57,0.34Zm-24.63-16.47-0.28-.34-1.52,1.12-3.77-.17-1.24-.45-1.35,1.18-1.35,4.22-0.62,1,0.51,1.07h0.67l0.22,1.52-0.45,1.46L469.1,268l-0.17-4,1-.45L469.83,265l1.12,0.9,0.17,1,1.52-.62-0.73,1.29,0.62,0.56,0.84-.45v-1l-1.41-1.8,0.28-.56-1.46-2,1.35-.62,1.46-1.41-2.92.51-0.84.73-1.41-1.41,0.22-1.18,3.94-.28,1.52,0.28,1.18-.28Zm5.34,0.45-1.07-.79-1,1,0.45,2,0.67-1,0.79,0.17Zm-16.87-4.72-3.15-.28-0.56,1.8-0.62.56-0.79,2.19-1.29.34-2.25-.28-0.9.79-2,.22-1.07-.9-0.28-1.07-0.9,1,0.06,2.81L452,261.4l0.79,0.45,0.22,2.08,2.31,0.11,0.56,0.73,1.86-.56,1.91,0.56,0.62,1,1.8-.73,0.22,0.56,0.62-2.36,0.06-1.57,1.52-1.07-0.06-1.41,0.51-1.07,1.86-.17-1.74-1.46,0.28-.73-1.12-1.46Zm-18.78,15.63,0.06-2.42,0.39-2-0.73-1-1.12-.11-2.25-2.53,0.62-1.29-1.18-.73-0.9-1.29-1.29-1.07h-1.57l-3.54-3.37-1.41-1.52-3.43-.39,0.11,0.79,2.81,2.59,0.79,1.35,1.41,1,1,2.59,1.35,1.29,1.18,2.19,2.64,3.37,2,1.29,1.29,1.29h1.74Z"/>
    <path id="IN" class="cls-1"
          d="M405.56,208.66L404,207.48l-0.45-2,1.12,0.22,0.06-1-0.62-1,0.17-1.52L402.64,200l-1.52,1.57-1.74.28-2.36-.45-0.79.84,1.07,2.92,1.24,0.9-1.35,1.07v1.29l-1.52,1.8-1,1.8-1.63,1.86-1.8-.11-1.74,1.86,1,0.79,0.17,1.35,0.9,0.9,0.34,1.46h-3.43l-1,1.12,1.86,1.46,0.45,0.67-0.73.62,2,2,1.12,0.22,2.25-1,0.28,3.6,1.12,5.29,1.41,2.19,0.67,3,0.84,1.52,1.86,4.55,1.46,1.46,1.12-1.52,1.41-.45-0.45-.51,0.73-1.18,0.79-.06v-2.7l0.67-1.52L406,235.54l0.45-1.24,2.92-1.07V232.5l4.5-4,2.25-1.12,0.84-1-0.11-1.24,3-.34,0.22-.62-0.79-2.64,0.28-1-1-.45,1.29-1.29-1.12-.9,0.56-1.18,2,0.84,0.11,1.18,3.82,0.51-0.73,1.46-1.18,1.07,0.84,0.9,0.67-1.07,0.84,2.7,0.79-.39,0.22-3,1.24,0.39,1.63-3.71-0.06-1,2-1.18,1.12,0.34,0.39-1.41-0.11-.67-1.69-.28,0.51-.73L431,211.41l-1.12.73-1.29-.45-1.8,1.12-1.41,1.29-1.24.22,0.62,0.56L424.68,216l-3.54.22-1.41-.67-0.06-.34-0.11-1.41-1,.39-0.11.73v1.8l-1.29.06-3.09-.56-0.9-.9-2.14-.22-5-2.53,0.62-1.69,1-.84Z"/>
    <path id="IE" class="cls-1"
          d="M268.26,157.1l-2.14,2.08,0.79,2.64-1.24,2.64,2.19,0.39,2.76-1.52L271.8,161l-0.28-1.86-2.14-.51,0.34-1.41-0.34-1.46Z"/>
    <path id="IR" class="cls-1"
          d="M351.08,191.73l-1.07.56,0.51,2.31-0.28.62,0.84,1.57h0l1,2.31,1,0.56,0.11,1.12-0.79.67-0.34,1.46,1.07,1.8,1.91,1,0.79,1.41-0.28,1.35,1.35,1.91,0.56-.73,1,0.62,0.84-.28,2.19,4,1.52,0.51,1.57,1.35,1.91,0.56,3.54-.84,0.67,2.14,3.49,0.62,2.92,0.51,0.56-2L380,216l-0.9-1.07L379,213.33l-1.52-.79-0.62-1.07-0.79-1,1.41-1.63-0.11-1.18-1.18-.28-0.62-2.64,0.67-1-0.67-.28,0.45-1.35,0.62-2.36-0.11-1.63-1.18-.06-1.8-1.74-1.24-.22-1.74-1-2.81.11-1.12,1.12-1.35.39-0.17.45-2.42.51-2.19-.34-1.07-1L358,196l-0.51-1.46-1.35-1,0.56-1-1.07-.45-1.86,1.46-0.56.06-1.07-.28-0.79-.9Z"/>
    <path id="IQ" class="cls-1"
          d="M347.31,196.68l-0.79,1.24-0.84.51,0.17,1.41-0.56,2.31-3.43,2,0.62,2.25,1.86,0.51,2.31,1.29,4.39,3.65,2.92,0.17,1.12-1.74,1.07,0.17,0.9,0.11-1.35-1.91,0.28-1.35-0.79-1.41-1.91-1L352.2,203l0.34-1.46,0.79-.67-0.11-1.12-1-.56-1-2.31h0l-0.73.34-0.56-.51-1.8-.28Z"/>
    <path id="IS" class="cls-1"
          d="M258.64,119.2l-2.59-.28L253.52,121l-2-1.07L249.2,122l-2.42-2.59-2.36.56-1.07,2.47,3.26,0.9,0.06,1.07-2.76.73,3.37,1.8-1.52,1.57,6.41,1.63,5.85-3.09,2-2.81-1.74-2.59Z"/>
    <path id="IL" class="cls-1"
          d="M336.69,204.27l-0.17.34H336l-0.22.45-0.34,1.41L334.61,208h0l0.84,2.64,0.17,0.45,0.79-2.87-0.06-.73-0.73.22,0.06-1,0.34-1.24,0.56,0.28,0.28-.56H336.8L337,205v-0.79Z"/>
    <path id="IT" class="cls-1"
          d="M305.42,194.71l-2.76.39-1.8-.17-0.22,1,4.16,2,0.11-1.63Zm-9.84-6-1.63.56,0.34,1.18,0.06,2.47,0.62,0.51,1.35-.56,0.22-2.7Zm2-12.37-0.11,1-0.67.39-1.18-.28-0.34.9-2.64.56-0.67-.51-0.06.62,0.45,0.84-0.56.67,0.39,1.69,0.84,0.28-0.17,1,0.67-.17,1.63-1.29,2,1,0.51,2.14,3.71,3.54,1.18,0.11,1.69,1.18,2.19,3.32-0.34.45,0.34,1.52,0.84-1.69,0.67-.11,0.17-1.07-1.12-.73,0.67-1.29,1.35,0.34,0.84,1,0.11-1.12-1.35-1.07L306.1,188l0.45-.39-1.69-.51-1.74-1.69-0.79-1.74-1.46-1.07-0.39-2.81,1.29-.79,1.24,0.34-0.39-1,0.17-1.12-2.25-.56-0.34-.79-1.52.39-0.17.45Z"/>
    <path id="JM" class="cls-1" d="M161.31,231l0.84-.51-0.84-.39-2.08-.11-0.17.39Z"/>
    <path id="JO" class="cls-1"
          d="M341.75,204l-3,2-1.74-.73-0.28.56V207l-0.22.56,0.06,0.73-0.79,2.87,0.06,0.28,1.74,0.28,1.07-1.18,1.18-.22,0.79-.9-1.57-1.8,3.15-.9,0.28-.28Z"/>
    <path id="JP" class="cls-1"
          d="M491.2,202.59l-1.12-.39-0.62.79-0.9-.22-0.84,1.12v0.9l1,0.51,0.39-1.07,0.79-.45,0.62,0.62,0.9-1.12Zm9.9-5.74v-2l1.46-2,0.06-1.63-0.84-2.87-1.63.39L499.47,190l0.28,2.31-1,2.47-3.15,2.76-1-1L493,200l-1.69-.39-3.09.56-1.12,1.29-1.57,1-0.84,1.18-1.46.56,0.62,1.29,1,0.56-0.39,1.63,0.73,0.73,1-.79,1.07-3.15-1.57-1.35,1.8-.06,1.86-.9,2.7-.39,0.06,1.41,1.07,0.73,2.25-2.14,2.76-.11,2-.9,0.79-1.35-0.28-1Zm4.55-14.45-1.18-.73-1.86-2.31-0.9,4.72-1.69.11-0.79,1.63,0.22,2.08,1.74-.06,0.84-2.31,2.47,1.46,1.35-2.08,2.31-.56L507.84,182l-1.12.9Z"/>
    <path id="KZ" class="cls-1"
          d="M383.64,157.27l-0.79.67-5.85.9-0.73.9,1.12,1.8-1.52.67,0.28,0.67-1.52,1.24,2.53,1.74-0.39,1.18-2.19-.11-0.45.73-2-1.29-2.47.06-1.63,1.07-1.86-1-3.43-1.74-2.42.06-3.2,2.7L357,169.3l-1.63-1.41-1.24,2.64,0.45,0.51-0.9,1.8,1.35,1.57,1.18-.06,1,1.52L357,177.06l0.79,0.39,1.46-.45,1.8-1,1.35,0.56,1.57-.11,0.28,1.41L364,180l-1.35-.34-1.35.34-0.06,1.63-1.52-.22,0.9,1.24,0.73,1.91,1.8,0.73L363.06,187l0.11,0.51,0.67-.67,1.74-.45,1.07,0.56,1.07,1.63,0.79-.11-0.06-7.87,4-1.29,4,2.59,1.46,2,4.5-.51,1.86,1.57L384.14,187h0.79l0.34,1.69,2,0.06,1,1,0.67-1.46,2.08-1.46,0.9-.39,0.34-.9,1-.28,2.59,0.73,0.22-1.24,0.9-.45,2.19,0.9,0.56-.22,4.89,0.28L405.4,186l1,0.34-0.11-1.18,1.07-.56-1.41-3.77,3.09-.9,0.79-.51,1.12-4L414,176.1l0.84-1,0.06-2.36,1.29-.22,1.18-1.57-0.84-1.46-2,.34-0.67-1-1.07-.45L412,166.94l-0.84-.45-2.25.62-2.14-1.41L406,167l-3.49-6.47-2-2,0.56-.84-3.94,2.53-1.52.17,0.11-1.46-2-.9-1.63.67-0.51-2.81-2.81-.56-1.41,1.12Z"/>
    <path id="KE" class="cls-1"
          d="M345.46,253.19l-0.62-.51L342.93,254l-2.25-.28-3.6-2.7-0.79-.28-1.07,1.07-1,1,0.73,1.07,0.84,2.59-0.56,1.12L334,259.26l0.39,0.62-0.11,1.18,5.68,3.2,0.11,0.9,2.25,1.57,0.62-.51,0.79-1.69,0.22-1.12,1-.79L346,262l-0.9-1.29V255l1.35-1.8Z"/>
    <path id="KG" class="cls-1"
          d="M405.45,186l-0.79-.79-4.89-.28-0.56.22-2.19-.9-0.9.45-0.22,1.24-2.59-.73-1,.28-0.34.9,0.45,0.22L391.11,188l1.12,0.79,1.12-.51,1.86,1.07-2,1.46-1.18-.22-0.56.62-1.69-.34L389.6,192l1.69-.17,1.91,0.67,2.92-.28,0.45-.45-0.22-.45,2.59-1.35,1.63,0.28,0.56-1.29,2-.22,0.56-.84,2.47-1.12,0.22-.45Z"/>
    <path id="KH" class="cls-1"
          d="M447.34,236.38l-0.73,1.12-1.29-.62-1.46-.22-2,.28-1,1.35,0.39,1.91,0.79,1.63,0.62,0.84,1.29,0.22,1.35-.62,1.63-.11-0.67-1,2.64-1.24,0.17-1.91L448.69,237Z"/>
    <path id="KR" class="cls-1"
          d="M479.05,197.36l-1.18.34,0.67,2-0.11,2.47,1.41-.17,1.24-.79,1.41-.39,0.56-1.07v-2.25l-0.39-1.29-1.35-2.36-2,.73-0.62.9-0.79.11Z"/>
    <path id="_-99-2" data-name="-99" class="cls-1"
          d="M312.85,185.32l-0.28.45,0.34,0.56,0.39,0.22,0.11,0.79h0.22l0.06-.45,0.9-.34,0.34-.06-0.06-.17,0.34-.79-2-.45Z"/>
    <path id="KW" class="cls-1" d="M353.89,211.86L355.3,212l0.39,0.84,1.12-.06-0.51-1.35,0.11-.39-0.34-.79-1.07-.17Z"/>
    <path id="LA" class="cls-1"
          d="M449,235.37l-0.39-1.12-3.49-4.5-1.86-1,1.46-1-0.62-1.46h-1.91l-0.67-1.52-0.9-1.35-0.79.22,0.22,1.91-0.84-.06-0.11-.39-1.35,1.07-0.34.62,0.67,0.51,0.11,1,1.07,0.06-0.34,3.2,1.63-1,2.87-.22,1.18,1.35,0.11,1.63,1.24,1.41-0.06,1.35-0.51.73,1.29,0.62,0.73-1.12,1.41,0.62Z"/>
    <path id="LB" class="cls-1"
          d="M337.47,203.2l0.84-.73-0.28-.73-0.67-.11-0.06.06L336.52,203,336,204.55h0.51l0.17-.34H337Z"/>
    <path id="LR" class="cls-1"
          d="M267.64,247.29l-0.34.62-1.69-1.74-0.34.06-0.73.73-0.73.84-0.06.45-0.39.51,1.07,1,1.35,0.84,1.41,1.18,1.63,0.73h0.39l0.22-2.08L268,247.79l0.06-.45Z"/>
    <path id="LY" class="cls-1"
          d="M320.1,206.8l-2.64-.56-0.51-.84-2.14-.39-1.07.22L312.11,207l0.34,1.41-1.52,1.29-1.69-.9-3.6-1.12L304.92,206l-4-1-1.86-.62-0.11,1.41-2.31,1.8,0.06,1.52-0.79.39,0.51,1.57-0.17,2.31,0.06,2.87-0.62.73,1.52,3,0.73-.34,1.24,0.79,0.67,1.07,2.47,0.73,0.9,1,1.12-.62,1.57-.9,6.24,3.2,6.24,3.2v-0.67h1.8V211.58l-0.45-1.46,0.17-1.91,0.56-.9Z"/>
    <path id="LK" class="cls-1" d="M407.93,249.65l0.67-.45,0.22-1.63-2.53-3.65-0.73,2.59,0.28,2.25,0.73,1.24Z"/>
    <path id="LS" class="cls-1" d="M325.1,309.42l1.91-2.31L325.78,306l-2.42,2.19,1.18,1.41Z"/>
    <path id="LT" class="cls-1"
          d="M321.05,153.16l-1.07-.79-1.52.28-2.64-.17-1.8.84,0.34,2.31,1.63,0.45,0.67,0.45-0.17.73,0.11,0.67,0.79,0.28,0.39,0.84h1.52l1.69-1,0.34-1.52,1.29-.84-0.17-1.24Z"/>
    <path id="LU" class="cls-1" d="M291,169.24l-0.34-.56-0.39.11-0.17,1.35,0.34,0.22,0.45-.06Z"/>
    <path id="LV" class="cls-1"
          d="M322.52,149.23l-1.35-1.07-0.67-.34-1.35.51-0.28,2.25-1.24.06-1.24-2.14-1.46,1-0.79,1.8-0.06,2.14,1.8-.84,2.64,0.17,1.52-.28,1.07,0.79,1.52,1.35,1-.45,1.69-1.07-0.51-1.69L324.65,150l-0.73-.67Z"/>
    <path id="MA" class="cls-1"
          d="M277.2,200.67l-1.63-.45-1.46.11-1-.79H272l-1.52,3.15-2.7,1.63-1,1.24L266,208.1l0.39,2.25-3.32,3.2-1.46.17-1.8,2.47-1,.62-0.62,2-1.8,2.36-1.52,3.09-0.06.79,3.54-.11,0.84-1.35,0.51-2.36,2.19-1.86,0.73-2.19,1-1.46,4-.39-0.06-1h0.22v-2.08l2.53-1.29,2.81-.73,0.62-.9,1.8-.73,0.06-1.35,1.63-.84,2-.34L278,200.62Z"/>
    <path id="MD" class="cls-1"
          d="M325.67,179.25l0.67-1.46,1.29-.22,0.22-.73-1.35-1.91,0.11-.79-2.47-1.46-1,.22-0.39.34,0.45,0.22,1.86,3,0.06,1-0.17,1,0.28,1Z"/>
    <path id="MG" class="cls-1"
          d="M359.29,280.69l-1.35-2.42L357.38,280l-1.8,2.42-2.19,1.91-2.92.73-0.73,2,0.79,3.32-0.11,1.07-1.46,2.08-0.28,1.24,1.24,5,2.14,1.07,2.64-1.12,3.65-11.7,0.67-4.16,0.51,1Z"/>
    <path id="MX" class="cls-1"
          d="M99.24,207.31l1.86,3.77,2.14,1.74-0.62,1.46,0.17,1.07,3.37,2,0.17,2.19,2.92,2.25,0.39,1-0.22-2.47-0.73-.06-1.52-4.1-1.8-2-1.29-2.25-1.18-1.24-1-3,0.22-.73,2.53,1.12,0.51,2.08,2.53,3.71,0.84,0.17,0.39,1.24,1.74,1.24-0.22,1.07,1.63,1.12,0.73,1.07,1.57,1.35,2.59,3.94-0.22,1.46-0.51.17,1.18,1.86,1.69,1,0.67,0.73,1.57,0.51,9.22,3.77,2-.79,2.92,0.84,1.74,1.74V235.2l0.73-1.29h2L139.21,232v-0.9h2.92v-0.22l1-.9h0.62l0.39,0.45,1.52-4.27,0.06-.79-2.7-.28-2.7.84-0.79,2.87-1,.67-4.72,1.18-0.45-.79-1.63-.45-2-3-0.9-3.88,0.11-2.31,0.9-2.76-0.62.06-2.31-.9-0.79-2-2.25-3.26-1.12-.73-1.29.06-1,1.41L118,210l-0.51-1-2.31-2h-2.7v0.73h-4.33l-5.9-2.19,0.17-.34-3.77.34Z"/>
    <path id="MK" class="cls-1"
          d="M316.16,186.34l-0.73.06-0.51.11-0.34.06-0.9.34-0.06.45h-0.22l-0.22.73,0.22,0.9,0.67,0.51,1-.17,0.62-.45,0.84,0.06,0.28-.34,0.28-.06L317,187.12Z"/>
    <path id="ML" class="cls-1"
          d="M286.19,229.07V228l-2.08-1.52-5.29-3.65-5.29-3.71-2.36.06,1.52,14.39-0.06,1.35H266.4L262.86,236l-0.51.28,0.06,1,0.28,0.9,0.56,0.45,0.11,0.62-0.06.51,0.11,0.56,2,0.39,2.81,0.73,0.06,1.41,0.45,0.45,0.22-.17,1.63,0.22,1-.62,0.62,0.51,0.62-.22-0.11-.9,0.39-1.24,1.24-1.35,0.67-1.46,0.73,0.22,2.36-2,2.7-.56h1l1-.06,0.56-.56,3.49-.39,0.11-1,0.84-1.07V229Z"/>
    <path id="MM" class="cls-1"
          d="M439,224.4l-1.12.51L436,224l0.45-1.41-1-.34L435,220.64l-1.63.28,0.17-2,1.46-1.46v-2.76l-1.18-1.46-0.9.11,0.11,0.67-0.39,1.41-1.12-.34-2,1.18,0.06,1L427.94,221l-1.24-.39-0.22,3-0.79.39-0.06,1.18-0.56-.28,0.11,1.35,1.12,1.35,2,2.7,0.34,1.52-0.56,2,1.86,0.51,2.81-2,0.67,1.35,0.79,4,0.62,0.84-0.11,1.74,0.51,1-0.51,1.24,0.17,1.18,1.63-3.09-0.62-1.46-0.17-1.63-1-1.29,0.73-2.53L433.06,230l0.67-.28,0.73-1.8,1.12-.06,0.9-.73,0.9-.39,0.34-.62,1.35-1.07Z"/>
    <path id="ME" class="cls-1"
          d="M313,185.16l-0.62-.45-0.51-.22-0.22-.28-0.39-.39-0.28.17-0.51.51-0.22,1.18L310,186h0l0.67,0.39,0.45,0.67,0.34,0.17h0l-0.11-.67,0.67-1.07,0.11,0.39,0.39-.17,0.28-.45Z"/>
    <path id="MN" class="cls-1"
          d="M438.57,165.31l-1.41-.28L435.42,164l-1.63,2.59,0.62,1.46-1.52,1.69-2.25-.62-1.57-.11L428,167.84l-1.63-.06-1.35-.73-2.36,1.18-3,2.08-1.63.39,0.39,1.63,1.29,1.24,2.25,0.9,1.07,1.86L422.43,179l0.56,1,3.94,0.67,1.91,1.35,1,0.22,0.73,2,0.9,1.29,1.74-.06,3.2,0.45,2.08-.28,1.52,0.34,2.31,1.29h1.91l0.67,0.67,1.8-1.12,2.53-.73,2.36-.06,1.8-.73,2.19-1.86-0.73-1.57,0.84-1.41,2.47,0.62,1.57-1.18,2.36-.84,1.12-1.46,1.12-.62,2.25-.28,1.24,0.28,0.17-.79-1.41-1.63-1.24-.73-1.18.84-1.52-.34-0.9.28-0.39-1,1.12-2.36,0.79-1.8-1.86.22-1.74-1.07-2.31,1.69-2.08.39-1.41.62-3.43-.34-1-1.24L448,168.51l-1.57-.34-2,.34L443,169l-2.19-1-0.28-1.86Z"/>
    <path id="MZ" class="cls-1"
          d="M344.11,275.51h0l-1.24.9-1.69.62h-1l-0.56.45-1.07.06-0.39.22-1.86-.45-0.62.06-0.39,1.52,0.22,1.86,1.29,1.69,0.11,2.08L335.84,286l-1-1,0.22-1.91-1.12-.9-0.9-.79-4.72,1.35,0.17,1.12,0.11,0.62,1.29-.06,2.59,1.41v2.08l-0.39,2.36,0.22,0.51-0.84,2.31L329.83,295l0.73,2.36,0.39,1.24-0.28,1.91,0.11,0.62,0.22,0.79,0.11,0.79h1.18l0.11-.9-0.51-.84,0.67-.62,3.15-1.52,0.67-.62,0.17-3.43-1.35-2.64,0.11-1.18,2.31-1.86,1.74-1.74,3.2-1.41,1-1,1.07-2.31-0.28-.79-0.17-5.51Z"/>
    <path id="MR" class="cls-1"
          d="M267.69,214.9v2.64l-5.12-.11,0.06,4.39-1.46.17-0.39.84,0.28,2.42h-6.13l-0.34.56,0.84,0.73,0.39,0.79,0.22,3.26-0.62,2.36,0.11,0.9,2.92-.73,1.8,0.9,1,1.18,1,1.12,0.51-.28,3.54-1.12h6.24l0.06-1.35-1.52-14.39,2.36-.06Z"/>
    <path id="MW" class="cls-1"
          d="M334.16,274.5l-0.34-.45-1.52-.28L333,274.5l-0.17,3,0.28,1.29-1,2,0.84,0.39,0.9,0.79,1.12,0.9-0.22,1.91,1,1L337,284.4l-0.11-2.08-1.29-1.69,0.06,0.22-0.22.9-1.07-3.32,0.45-.9-0.11-1.91-0.56-1Z"/>
    <path id="MY" class="cls-1"
          d="M437.67,249.87L437.5,251l0.79,2.14,1.07,1.86,3.32,2.42,1.12-.11-0.56-1.91-0.56-.45-0.17-3.2-1.57-2-0.34-.17-1.52.84-0.11-.79-1.52-.39Zm23.62,1-0.17,1.74-1.07.51-0.73-.79-0.79,1-1.12,1.24-2.53.62-0.34,1.35-1.18.28-1.12-.56,0.28,1.07,1.07,0.9,2-.22,0.9-.79,2.25,0.28,1.29-.34,0.79-2.19,0.62-.56,0.56-1.8,3.15,0.28,1.12-.51-0.28-.79,1.07-.06,0.11-.62-2.31-.9-0.06-.67-1.41-.79-0.79,1.24Z"/>
    <path id="NA" class="cls-1"
          d="M314.59,287.77l-3.77-.22-1.07-.79-6.3.06-2.19-.67-1.69.56,0.11,1.24,1.29,1.63,1.18,3,1.63,3,0.06,2,1.24,5.57,0.62,1.29,1.18,1.35,0.73-.9,0.9,1.24L311,306.5l1.41-.9V294.18l1.52-.06,0.06-5.9,3.54-.62,0.62,0.67,1.46-.62,0.9-.39v-0.11l-0.62-.39-1-.11-1.29.39Z"/>
    <path id="NC" class="cls-1" d="M541.86,294.8l-4.16-3.43-0.45.56,1,1.18,3,2.08Z"/>
    <path id="NE" class="cls-1"
          d="M300,221.65l-5.34,3.2-4.5,3.26-2.19.73v3.77l-0.84,1.07-0.11,1-3.49.39-0.56.56-1,.06-0.11.79,1.12,2.53,1.8,0.34-0.06,1.07,0.51-.45h0.56l1.18,0.9,0.11-1.41,1.07-1.91,1.69-.17,1.57,0.62,2.14,0.22,1.91,0.84,1.74-.73,2.19-.06,3.82,1.41,0.28-.06,0.06-.51L304,239l0.17-.73-1-.06v-1l-0.67-.62,0.67-2.14,2-1.52,0.06-2.14,0.62-3.37,0.34-.73-0.67-.56v-0.51l-0.56-.45-0.39-2.64-1.12.62-0.9-1Z"/>
    <path id="NG" class="cls-1"
          d="M303.06,239.75l-3.82-1.41-2.19.06-1.74.73-1.91-.84-2.14-.22-1.57-.62-1.69.17-1.07,1.91-0.11,1.41-0.06.51,0.34,1-1.69,3.54-0.06,3.54h2.53l1.12,1,1.35,2.14,2.42-.22,1.63-.56,1.12-2.64,2.87-.34,1.07-.51,0.73-2.08,0.84-.67,1.29-3.32,1.29-1.24,0.22-.84-0.62-.62Z"/>
    <path id="NI" class="cls-1"
          d="M144.95,239H144.5l1.8,1.74,0.73,0.62,0.56,0.51,2.81,0.56,0.39-.34-0.22-.28,0.51-2.08L151,237.9l0.45-2.14,0.11-.17-2,.62-2.08,1.24-1.46.11,0.06,0.79-0.9.45Z"/>
    <path id="NL" class="cls-1"
          d="M290.69,160.19l-2.14,1.07L287.21,165l-0.79.67h0l1.12,0.17,1.46-.51,1,1.07,0.84,0.56-0.28-2.64h1l0.79-3.32-0.28-.9Z"/>
    <path id="NO" class="cls-1"
          d="M298.45,145.18l0.67-1.74,1.29-2.14,0.51-3.77-1-1.69-0.11-4.5,1-3.32,1.57,0.06,0.56-1.41-0.56-1.24,2.42-5.29,2.59-7.31h1.52l0.39-2.36,2.92,0.67,0.22-2.81,1-.17,1-1.18,1.74,2.31,2-.22,1.69,1.07,1.46-1.91,0.79-3.26,2.42-1.52,2,1.8-0.67,3.09,1.24-.39,2.64-1.8h0L328,103.29l2-1.24-4.89-3.49-2.81,1-2.87-.22-2.36,3.88-2.59-.22-3.43,2-4.27,5.51-2.59,3.15-3.77,7.65-2.87,5.17-3.09,3.65-4.1,2.87-1.46,2.14,0.51,7.37,0.56,3.26,2.14,1.52,2.08-.67,3.09-3.49Zm21.37-86-2.25-1.69-0.62-2.87-3.2,1.57,1,2.42-1.07,1.91,2.76,1.69ZM309.7,44.3l-2-3.09-2.31.34-0.62,3-2.25.11-0.84-3.09-4.27,3.15,1.24,6.58,3,6.58L304.07,60l-1.41,2.59L306,66.91l1.86-.28,0.73-5.85L310,59.37l0.84-5.62,3.94-3.15Zm11.25-6.41L317,35.53l-1.57,2.81-2.25-2.25-4.84,2.64L310,42.9l2.25,0.17,0.28,2.42,4.61,1.41,4.5-1L324,41.16Z"/>
    <path id="NP" class="cls-1"
          d="M416.87,213.89l-1.74-.39-2.47-1.12-0.51-.84-3.71-2-0.62.45-1,.84-0.62,1.69,5,2.53,2.14,0.22,0.9,0.9,3.09,0.56,1.29-.06v-1.8l0.11-.73Z"/>
    <path id="NZ" class="cls-1"
          d="M551.08,329.38l-0.34-.9-1.07,1-1.52,3.26-1,1.12-3.49,2.36-2,2.14L540.91,340l0.28,0.84,1.69,0.17,1,0.73,1.46,0.06,2-1.63,1.29-3.65,1.35-.84h1.18l-0.56-1,2.42-3.37-0.45-1.74-1.12.84Zm2.47-9.5-0.45-1.69-1.24-.51L551,316.62l-0.56.17,3.2,5.51-0.17,2.81-1.12.67-0.06.73L554,327.3l0.51,1.12-0.9,1.69,0.9,0.84,1.18-.84,1.57-2.87,0.28-1.46,1.18,0.06,0.84-2.92-0.79-.22-0.9.73-2.25-.79-0.22-1.46-0.73-.51L554.63,322Z"/>
    <path id="OM" class="cls-1"
          d="M369.19,219.17H368.4l-1,3.09-0.06.67,0.73,1.18-1,3.32-4.67,1.63,1.24,2.7,0.51,1.12,0.73-.11,6.58-3.88-0.17-1.12,1.29-1.12,2.08-3.54L373,221.37,370,220.19Zm-0.51-2,0.51,0.28,0.17-.73-0.17-.17Z"/>
    <path id="PK" class="cls-1"
          d="M400.05,199.27l-0.45-1.46-1.12-.9-0.9.22-4.27,1-0.9.84,0.56,1.74-0.79.79-0.34,1.41-1.52-.06,0.62,1.24-1,.45-0.67,1.12,0.11,1.12-3.71,1.07-0.84,1-0.06,1.52-2,.73-3.88.28-2.59-.9,0.79,1,0.62,1.07,1.52,0.79,0.06,1.57,0.9,1.07-2.25.9-0.56,2,2.19-.22,2.53-.06,2.87-.34,1.18,1.29,0.45,1.24,1.12,0.45,1-1.12h3.43l-0.34-1.46-0.9-.9-0.17-1.35-1-.79,1.74-1.86,1.8,0.11,1.63-1.86,1-1.8,1.52-1.8v-1.29l1.35-1.07-1.24-.9-1.07-2.92,0.79-.84,2.36,0.45,1.74-.28,1.52-1.57Z"/>
    <path id="PA" class="cls-1"
          d="M160,245.32l-2.87-1.07-0.51.45-3.6.51,0.06-.34-0.56-.56-0.28,1-0.22.17-0.17.9,0.17,0.22,2.81,0.39,0.28,1,1.35-.51-0.73-.84,2.14-1.41,0.79,0.45,0.62,1.91,0.51,0.45,0.67-.67,0.28-.45-0.17-1.18Z"/>
    <path id="PE" class="cls-1"
          d="M171.49,265.22l-0.45-.06,1-1.57-1.18-.73-2.36.28-1.18-.17-0.9-1.63-2.25-1.86-0.39.17,0.22,1.18-0.51,1-1.69,1.63-1.86.62-1.24,2.42-0.9.62-1.91-.84,0.22-1.57-1.24,1-0.51,1.07,0.73,1.52-0.51.67,2.31,1.69,1.12,1.86,3,6.07,1.29,2.08-0.28.45,0.62,1.35,1.18,1,2.81,1.8,3.09,1.63,0.11,0.67,1.57,1,0.79-.39,0.39-.84,1-1.74-0.67-1.35L173,283.1l0.62-.79,0.45-3-1.35-2.59-0.9.28-0.73-.17,0.11-2.42-1.29,1-1.35-.06-0.56-.84-1-.11,0.34-.67-1.52-2.36,0.39-1,1-.45,0.34-2.14,3.26-1.57,1.41,0.06Z"/>
    <path id="PH" class="cls-1"
          d="M478.32,246.16l-0.22-1.35-1.24-.73,0.11,1.24-1.12.06-0.28.73-1.18.45-0.56-.73-1.86,1-0.34,1.8,2.36-1.46,1,0.73-0.45.73,0.45,1.12,1.86,0.9,0.45-.73-0.51-1.18,0.73-.79,0.56,1.57Zm-3.71-2.92,0.17-1.52-1.18,1.52,0.22-1.07-0.84.11-0.9,1.86,1,1.07Zm-8.55,1.52,1.86-2-0.28-1.29-0.84,1.57L464,246.22Zm5.23-4.1,0.17,2.31,1-.45,0.73-1.35Zm5.68-.45-0.45-.62-1.52-.06,1,1.8-0.9-.11,0.79,2.14,1.52-1.46Zm-6.19-1.41-0.56-.56-1.35-.06,1.46,2ZM470.45,230h-1L469,231.43,468.82,234l-0.62-.56,1.18,4,0.79,0.34,1.41-.22,1,1L473,238l1.8,1.63-0.22-2-2-.9h-1.52l-0.34-1.24,0.22-1.29,0.9-.56,0.39-1.35Z"/>
    <path id="PG" class="cls-1"
          d="M524.32,270l-2.14-2.64,0.34,1.18Zm-6.07-2.14,0.51-1-1.24-1.07,0.17,0.9-1.29,1.07L514,268l-1.41-.22,2,1.41h0.84L517.4,268Zm-17.09-4.5V273.6l1.63,0.06,0.9,0.28,1.24-.56-0.22-1.18,2.25-1,2,0.67,1.69,2.25,1.24,1,2.92,0.39,0.39,0.39,1.18-.56-2.31-1.91-0.9.06-1-1.69-1.41-1-0.34-1.07,1.46-.17-0.39-.84-2.59-1-2.19-2.53-2.87-.9Zm18.89,3-3.43-3.15,0.67,0.84Z"/>
    <path id="PL" class="cls-1"
          d="M310.43,157.72l-0.11-.67-1.57-.45-4.39,2.14-1.07.79,0.34,1.35-0.45.67,0.84,3.15,0.62,1.57,0.73,0.79,1.18,0.22,0.73,1.18,0.22-.62,1.07,0.28,0.17,0.79,1.18,0.17,0.73,1.18,0.11,0.17,0.62-.34,0.79,0.84,2.76-.62,1.46,0.9,0.34,0.11-0.39-1.07,1.41-2,1-1-0.79-2.19L317.85,164l-0.51-1.18,1-.51-0.45-2-0.06-1.18-0.39-.84-0.79-.28-2.87.06-1.91-.28h-1.41Z"/>
    <path id="PR" class="cls-1" d="M179,230.42l-2.36-.51-0.11,1Z"/>
    <path id="KP" class="cls-1"
          d="M485,186.22l-1-1.24-0.62,1.18-2.42.9,0.22,1.12-1.35-.06-0.73-.67L478,188.92,476.24,190,475,191.34l0.73,0.56,1,0.56-1.07,2.59,1.52,0.34,0.73,0.39,0.79-.11,0.62-.9,2-.73-0.9-.9L480,191.73l1.74-.9,1.69-1.41L483.33,188l1.12-1.41,0.62,0.11h0l-0.11-.45h0Z"/>
    <path id="PT" class="cls-1"
          d="M267.24,188l0.34,0.73-0.39,2.92-0.62.73,1,2.25-0.11,2.76,1.63,0.06,0.62-.51,0.56-3.82-0.62-1.18,0.67-.17,0.34-2.87,0.73-.56-0.45-1.07-2.08.17-0.39-1-1.18.84V188Z"/>
    <path id="PY" class="cls-1"
          d="M190.49,291l-1.46-.84h-1.46l-2.7.51L184.08,293l-0.62,2,2.87,2.76,1.29,0.28,1.91,1.24,1.63,0.67,0.22,0.79-1.52,2.64,3.32,0.73,1.24-.28,1.41-1.35,0.28-1.52,0.28-1-0.34-2.25-0.56.28-2.25-3.26-0.62.34-1.63-.34,0.11-2.25-0.45-.9Z"/>
    <path id="PS" class="cls-1" d="M336.12,205.62l-0.34,1.24-0.06,1,0.73-.22,0.22-.56V205.9Z"/>
    <path id="QA" class="cls-1" d="M361.71,218.67v-1l-1.29.56,0.11,1.24,0.45,0.34,0.45-.11Z"/>
    <path id="RO" class="cls-1"
          d="M322.12,173.29L320,174.42l-0.73-.56-2-.28-0.67.51-1,.51L315,176.16l-1,1.52-1.24.45,0.84,0.9,1.12,1.24,0.11,0.9,1.41,0.79,0.28,0.39,0.45,0.9,4.1,0.28,2.59-1.07,2,1,0.45-2.64,0.45,0.22,0.73-.45L327.3,180l-0.73-.39-0.73.34-0.67-.39-0.28-1,0.17-1-0.06-1-1.86-3-0.45-.22Z"/>
    <path id="RU" class="cls-1"
          d="M505.26,167.22l-0.62-2.53,0.06-2.53-1-4.27-0.67.39,0.62,1.24-1.46,1.18-0.11,3.49,0.9,2.47L503,169.92l-0.34,1.8,0.17,2.53-0.17,2.25,0.28,1.91,1-1.74,1.18,1.35,0.06-1.57-1.52-2.36,1-3.43,2.31,0.79Zm-188.7-9.9,0.17-.73-0.67-.45-1.63-.45-2.14.9-0.34,1.18,1.91,0.28,2.87-.06ZM8.31,118.69l0.11-2.47-4.1-4.1L0.5,108.85v15.91l0.9-1.57-0.73-1.8,1.86-.9L2.19,121.9,3,123.19l1.8-.51L6.4,123.3l0.34,1.63L8.82,126,10,127.24l1.46,0.11,0.62-.73,0.06-3.6,2.53-.39L16.19,121l-3-3.65-4.22-.62,0.34,2.87Zm553.62-18.27V97.1l-2,2,0.28,1.52ZM2.58,100.14L4.21,99l0.11-.67L2.07,96.93l-1.52.17v3.32ZM505.2,88.33L505,86.93l-2.25-2.14-2,.51-1.46,2.19,0.28,0.28,3.2,0.62Zm11.13-10.68-3.94-1.57-2.92-1-0.39,2L512,79.45,514.48,80Zm-8.83-2.92-5.62-3.37-4.1-.28-2.08,1.24-0.84,4.33,3.09,3.88,2.59-1.41,5.74,0.17ZM371,100.93L368,97l-0.34-4.16,2.42-5.06,2.31-5.45,4.84-5.68,4.78-3,5.51-3.2,1.07-2.08-1.07-2.7-3,.9L381.84,69l-5.17,1.24-5.17,4.1L368,77.65l0.45,2.7-3.71,5L366.15,86l-3.09,4.61,0.06,2.81-1.57,1.07,0.22,2.7,2.81,1.29,0.39,2.14,5.12,0.62Zm-41.22,5.34-2.64,1.8-1.24.39-0.22,3L328,114.2l-1.46,3,1.8,4.44-1.07,3.2,1.41,2.7-0.62,2.31,2.31,2.36L329.83,134,325,140.06h0l1.63,1.52-1.8,1.69h0l0.22,0.56L324,145.57l0.45,2.76-0.67.9,0.73,0.67,0.11,1.41L325.1,153l1.63,0.67,0.22,0.67,0.84-.34,1.52,0.67-0.17,2,1,1.74,2,2.14-0.62.56-1.24-.11-0.28.22,0.39,0.84,0.39,1.63h0l0.56,0.11,0.39-.56,2.08-.11,1,1.46-0.28,1.29,1.24,0.11,0.56,1.07-0.06.51,2,0.84,1.18-.39,1,1.12h0.9L343.6,170v0.73l-0.51,1.24,0.34,1.29-0.22.79-1.52.17-0.79.67-0.06,1,1.41-.39,0.06,0.51-2.31,1,0.9,0.9-1.29,1.86-1.12.34,1.35,1.29,1.8,0.84,2,1.86,0.17-.28,1.29,0.39,2.31,0.34,2.14,1,0.28,0.39,1-.34L352.2,186l0.45,0.84,1,0.51,0.45,0.06,1.07,1.29,0.67,0.17,0.28-.51,1-.84h0L355.35,185l0.17-1.46-1.41-2.08,1.57-2.31,1.52-.39,0.73-1.35-0.79-.39,0.17-1.18-1-1.52-1.18.06-1.35-1.57,0.9-1.8-0.45-.51,1.24-2.64,1.63,1.41,0.17-1.8,3.2-2.7,2.42-.06,3.43,1.74,1.86,1,1.63-1.07,2.47-.06,2,1.29,0.45-.73,2.19,0.11,0.39-1.18-2.53-1.74,1.52-1.24-0.28-.67,1.52-.67-1.12-1.8,0.73-.9,5.85-.9,0.79-.67,3.88-1,1.41-1.12,2.81,0.56,0.51,2.81,1.63-.67,2,0.9-0.11,1.46,1.52-.17,3.94-2.53-0.56.84,2,2,3.49,6.47,0.84-1.29,2.14,1.41,2.25-.62,0.84,0.45,0.73,1.41,1.07,0.45,0.67,1,2-.34,0.84,1.46,0.62-.17,1.63-.39,3-2.08,2.36-1.18,1.35,0.73,1.63,0.06,1.07,1.12,1.57,0.11,2.25,0.62,1.52-1.69L434,166.43l1.63-2.59,1.74,1.07,1.41,0.28,1.86,0.62,0.28,1.86,2.19,1,1.46-.45,2-.34,1.57,0.34,1.52,1.18,1,1.24L454,171l1.41-.62,2.08-.39,2.31-1.69,1.74,1.07,1.86-.22,1.86,0.9,2.19-1.52v-1.07l1.41-2.64,0.84-.79v-1.41l-0.84-.62,1.29-1.29,1.91-.45,2.08-.06,2.36,0.79,1.35,1,2.08,5.17,0.56,2.36,2.7,0.79,1.86,1.69,0.62,2.19h2.36l1.35-.9,2.59-.67-1,2.19-0.62.84-0.56,2.47-1.07,2.19-1.91-.39-1.35.79,0.39,1.86L485.63,185l-0.79.06v1.07h0l0.22,0.39h0l0.22-.67,2.08-1.57,1,1h1l2.08-1.24,5.23-6.41,0.51-1.57,2.36-3.37,0.73-3.82,0.11-2.92,1.24-2.53,0.11-2.19-2.25-2.87-1.69-.17-1,1.35-1.52-.56-0.79-1.69-2.47-.34,6-6.58,5.06-5.74,5.12-.9,4.78,0.51,1.91-1.52,2.42,0.45-0.11,2.19,2.42-.34,3.49-.79-1.29-1.86,3.88-5.34,4-1.12,1.29,4,3.94-3.54,1-2.76,1.91-.28L536.46,138l-2.81,2.53-2.7,3.2-2.81,3.77-2.42.67-0.06,1.35-1.29,1.69-0.73,3.88,0.84,6,0.67,3.71,0.56,1.74,2.25-2.31,0.45-2.59,2.31-.62,0.56-3,2.76-1.35-0.67-1.18,0.67-2.31,1.46-.11,0.22-4.16-1.8-.67L533.88,147l1.86-2.92,0.51-2,2.08,0.45,1.52-1.35,0.73,1.18,4-2.47,2.25,2.19,0.56-1.41,4.67-4.22,1.41-.39,4.39-2.53,2.92,0.73,0.39-.9L561,132l-0.73-1-1-2.92-1.41-1.91,2,0.28,2-17.54L559.8,107l-4.5-2.14-3.26.28-4.95-1.29-0.67,2,1.24,2.81-1.91,1.41-2.7-3.88-3,.51-2.92-.9-2.76.11-2.08.9-1.91-1.29,0.17-3.37-1.29-2-3.09-.79-6.3.9-4.1-3.71-1.35-3-14.06-3.37-2.08,2.25,1.12,4.67-2.53-.67-1.12,1.35-3-1.52-2.64,1.35-2.47-2.25-1.52,5.12-2.47-2-2-3.88,0.9-2.14-0.73-3.37-2.53-2.87-2.47.06-3.32-1-0.11,4.16-6.52-.79-0.39-2.53-5-.9-2.47.9-0.67,1.41-0.79-3.54-1.41,1.07-2.31-1.41L451.9,83l1.18-1.69,4.1-3.32,1.74-1.8,0.39-3.26-1.24-2.42-3.54-3.26L450,67.13l-1.41,1.63-0.39-3.37-3.54-1.07,2.14-1.74-2.7-2.36-3.65,3-1.52,3-0.45,2.92L435.59,69l-3.49,3.49L430.81,71l-4.1.62-0.51,1.74-4.1.84-3,3.09-1.8.17-1.8,3.88,1.29,3-3.37.73-3.77-.22L406.91,86l0.17,5.74,1.41,4.22-2.87-2.87-3.26.28-2.59,2,0.73,3.54-1.69-.9,0.62-4.84-0.84-2.87-0.79.11,0.34,3.71-2.81,3.37,2,3.94L396.12,106l0.39,2.47,1.69,0.34-0.73,2.81,0.9,2.36-1.35,2-0.39,2-1.74,1-0.62,1.41-1.8-.56,3-5.68,0.67-2.81-1.74-2.64,0.34-6.19-0.51-3.32-1-1.57,1.46-4-0.34-2.87-4.1-1.35-1.18,1.07-1,4.67-2.87,4.44,0.06,1.52,0.84,3.6-0.51,2.14,1.86,0.45,0.06,1,1.57,2.31-1.07,2.19-5.68-4.89-2.14-1.41L375.65,105l-0.79,1.46L376.5,109l-1.8,2.81-1.8-2.59-2.31,1.8-2.92.11-1.12,1.46-1.91-.45,1.52-2.59L365,109.3,359.51,113l-3.26,2-0.39,2.59-2.42.84L352.2,117v-2.25l2-.51-0.9-2.31-4.39-1.35,1.12,2.59-0.79,2.47,1.29,2.36-0.9,2.7-1.46-1.35-1.46-.22L343,122.91l1.07,2.7-1.29.9L339,124.2l-1,1.41,1,1.57-0.22,1.74-3.2-2-0.22-5.51-2.53-2.81,1.12-.51,7,3,2.53-1,1.74-2.08-0.11-2.64-1.18-2-5.9-4.84-4.27-1.07-2.59-2.7-1.35,1.52h0ZM445.09,55.72l0.45-3.2-3.94-4.67-1.18-.56-1.29,1-2.87,10.35ZM361,36.6l0.62-1.46L359.29,33l-1.46,1.63-0.9,2.31-0.34-2.59-2.36.11-3,1.74,3.49,0.28-0.9,2.92,1.69,2.14,1.8-1.52,0.22-1.52Zm76.13,14.56,0.39-7.59-3.6-8.94-3-5-3.37,2.31-4,6.58,2.14,1.8,1.18,6.3,2.59,3.2,4.33,2.36Z"/>
    <path id="RW" class="cls-1"
          d="M327.75,261.57l-0.39-.17-0.45.45-0.06,1-0.22.11-0.17.84,1,0.11,0.45-.9,0.84,0.11h0l0.45-.22,0.11-.9-0.62-.9Z"/>
    <path id="EH" class="cls-1"
          d="M267.47,214.45l0.06,1-4,.39-1,1.46-0.73,2.19-2.19,1.86L259,223.67,258.19,225l-3.54.11-0.06.73,0.34-.56h6.13l-0.28-2.42,0.39-.84,1.46-.17-0.06-4.39,5.12,0.11V215l0.06-.34v-0.11h-0.28v-0.06h0Z"/>
    <path id="SA" class="cls-1"
          d="M351,211.75l-4.39-3.65-2.36-1.29-1.86-.51-0.28.28-3.15.9,1.57,1.8-0.79.9-1.18.22-1.07,1.18-1.74-.28-0.17.73-0.34,1.57H336l1.74,2.64,1.91,3.94,1.57,1,0.9,1.86,0.11,2.19,1,1.57,1.8,1.41,2.64,4.44,0.22,0.67,1-2L350,231.6l5.29,0.51,1.12-1.74,1.46-.73,4.5-.62,4.67-1.63,1-3.32-0.73-1.18-0.34.34-4.67-.84-0.62-1.74-0.06-.39-0.28-.67-0.45.11-0.45-.34-0.22-.39-0.84-1.63L359.4,216l-2.08-1.74-0.62-1.52-1.12.06-0.39-.84-1.41-.17Z"/>
    <path id="SD" class="cls-1"
          d="M338.71,232.5l0.51-.51,1.12-.28,0.79-1-0.84-.62-0.62-.39L338.88,226l0.34-.28-0.51-1.63h-18.5v3.32h-1.8v0.67l0.06,6.52-1.35-.11-0.79,2.59-0.51.51-0.39,1.91,0.56-.11,0.9,2v0.39l0.17,0.67,0.9,1-0.17,1.8,0.56,0.45,0.11,0.06,0.51-.17,0.56-.28,0.84-2.14,1.12-.22,1.52,1.52,0.56-.28,2.87,0.39,1.63-1.41,1.29,0.9,0.79-.17,1.63-2-0.51-1.41,1.74-.34v2.31l1,2,0.22,0.06v-0.17l0.45-1.63,1.57-2.31,1-.79,0.62-1.57,0.22-1.41-0.17-.62,0.67-2.36Z"/>
    <path id="SS" class="cls-1"
          d="M318.52,245.83l1.07,0.62,0.84,1.12,2.08,2.42,1.18,0.62,0.22,0.51,1,1.29,1.86,0.06,0.84-.34L328,252.8l1.35,1h0l0.62-.45,1,0.34,1.24-.39h1.12l1-.73,1-1,1.07-1-0.9-1.69-1.8-1.74-1-.11,0.51-.9,1.07-.51v-1.24l-0.22-.06-1-2v-2.31l-1.74.45,0.51,1.41-1.63,2-0.79.17-1.29-.9-1.63,1.41-2.87-.39-0.56.28L321.5,243l-1.12.22-0.84,2.14-0.56.28Z"/>
    <path id="SN" class="cls-1"
          d="M261.23,235.2l-1-1.18-1.8-.9-2.92.73-0.39.84-0.73,1.12-0.67.28,0.79,0.56,0.62,1.24,2.53-.45,1.91,0.62-1.35.34-0.67-.34-1.24.62-1.41-.06,0.28,1.24,0.84-.28,0.51,0.06,0.39-.17,2.87,0.06h0.73l1.12,0.39,1.29-.11,0.22-.11,0.06-.51-0.11-.62-0.56-.45-0.28-.9-0.06-1Z"/>
    <path id="SB" class="cls-1"
          d="M534,275.8l-1.24-.45,0.62,1Zm-2-1-1.8-1-0.11.62Zm1.29-.39-1.18-2-0.22,1,1.18,1.35Zm-2.81-2-2.36-1.57L528,271l2.64,1.74Zm-3.65-1.52-1.57-1.18-0.06.28Z"/>
    <path id="SL" class="cls-1"
          d="M264.88,246.28l-1-2.7h-1.24l-2.08,1.8,0.17,1.18,0.28,0.56,0.79,0.84,1.12,0.62,0.39,0.11,0.39-.51,0.06-.45,0.73-.84,0.73-.73Z"/>
    <path id="SV" class="cls-1"
          d="M141.91,236.6l-0.34.11-0.73.79-0.06.22,0.45,0.34,0.84,0.11,2.14,0.51,0.17-.39-0.45-1-0.67.17-0.84-.79Z"/>
    <path id="_-99-3" data-name="-99" class="cls-1"
          d="M348.55,241.33l-0.56.84-0.34.56,0.56,0.9,0.56,0.79,0.62,0.56,5.12,1.86h1.29l1.07-1.29,0.73-1V241.5h0l-3.6,1-3.94.56-1-1.35Z"/>
    <path id="SO" class="cls-1"
          d="M346.47,261.57l0.34-.84,1.69-1.91,5.34-4,3.15-3.88,1.35-2.31,2.47-6.07,0.11-2.19-2.87,1-0.51.06h0v3.09l-0.73,1-1.07,1.29-4.39,4.72-2,.06-1.41,1.12-1,.06-0.45.51-1.35,1.8v5.68L346,262Z"/>
    <path id="RS" class="cls-1"
          d="M312.79,178.07l-1-.11-1.18.62h0l0.39,0.84,0.51,0.62-0.62.84h0.56l-0.39,1,0.73,0.84-0.22,1-0.39.11,0.39,0.39,0.22,0.28,0.51,0.22,0.62,0.45-0.11.17,0.39-.17,2,0.45-0.34.79,0.06,0.17,0.51-.11,0.73-.06,0.28-.28,0.67-1.57-0.73-.9-0.11-.79,0.39-.51-0.28-.39-1.41-.79-0.11-.9L313.74,179Z"/>
    <path id="SR" class="cls-1"
          d="M192.12,250l-0.22,1.41L190.77,253l1.41,2,1,1.35,0.84,0.11,0.06-1.07,0.62,0.11,0.73-.17,0.9,0.34,0.39-.67,0.11-.73,0.28-.67-0.62-.9-0.11-1.07,0.79-1.35-1.69-.39-1.24.11-0.17.28Z"/>
    <path id="SK" class="cls-1"
          d="M314.93,170.31l-2.76.62-0.79-.84-0.62.34-0.11-.17H310.2l-1.57,1.63-0.67-.06-0.22.51-0.11.28,0.17,0.79,0.79,0.62,4.27-1.07,0.39-.56,2.19,0.56,0.34-.22,0.28-1,0.45-.62Z"/>
    <path id="SI" class="cls-1"
          d="M306.77,176.44h-0.28l-0.28.39-1.35.06-0.79.51-1.29-.17-0.17,1.12,0.39,1-0.34.22,2.53,0.11V179l0.67-1.12,1.24-.62Z"/>
    <path id="SE" class="cls-1"
          d="M313.46,108.24l-1,.17-0.22,2.81-2.92-.67L309,112.9h-1.52l-2.59,7.31-2.42,5.29,0.56,1.24-0.56,1.41-1.57-.06-1,3.32,0.11,4.5,1,1.69-0.51,3.77-1.29,2.14-0.67,1.74,1.18,4.16,1.29,3.26,0.51,2.64,1.8-.11,0.9-2.19,1.91,0.28,0.9-2.64,0.62-4.95,1.63-.73,1.41-3.49-1.52-1.74L308,137.47l1.12-4.67,3-3,2.47-2.87-0.22-2.25,1.52-2.59,2.7-1.07-0.51-1.52-0.06-6.19-2.42-2.87Z"/>
    <path id="SZ" class="cls-1" d="M330.11,300.76l-1,1.29,1,1.57,0.9-.17,0.34-.79-0.11-.79L331,301.1Z"/>
    <path id="SY" class="cls-1"
          d="M345.18,202.08l0.56-2.31-0.17-1.41,0.84-.51,0.79-1.24-1.8.28-0.84-.06-1.8.73-2.14-.34-1.74.56-0.51-.39-0.9,1.91-0.39.79,0.17,1.46,0.67,0.11,0.28,0.73-0.84.73-0.39,1v0.79l-0.22.28h0.06l1.74,0.73,3-2Z"/>
    <path id="TD" class="cls-1"
          d="M312.23,225l-6.24-3.2-1.57.9,0.39,2.64,0.56,0.45v0.51l0.67,0.56-0.34.73L305.09,231,305,233.12l-2,1.52-0.67,2.14,0.67,0.62v1l1,0.06-0.17.73,0.62,1,0.11,1.07-0.06,1.07,0.84,1.46-2-.06-0.34.73,2.31,2.92-0.22.45,1.29-.11,2.92-.62,1.46-1.18-0.17-.56,2-.06,1.46-.73,1.12-1.74,0.79-.62,1-.28v-0.39l-0.9-2-0.56.11,0.39-1.91,0.51-.51,0.79-2.59,1.35,0.11-0.06-6.52Z"/>
    <path id="TG" class="cls-1"
          d="M281.3,242.06l-0.11.51,0.67,0.84,0.56,3-0.34,1.41,0.9,2.31,1.24-.34-0.39-1.07,0.06-3.6L282.48,243l0.22-.84Z"/>
    <path id="TH" class="cls-1"
          d="M445.82,236.1l0.06-1.35-1.24-1.41-0.11-1.63-1.18-1.35-2.87.22-1.63,1,0.34-3.2-1.07-.06-0.11-1-0.67-.51-0.9.39-0.9.73-1.12.06-0.73,1.8L433,230l2.36,3.71-0.73,2.53,1,1.29,0.17,1.63,0.62,1.46-1.63,3.09-0.45,1.52,0.11,1.86,0.28-.9,1.86,2.42,0.62,0.62,1.52,0.39,0.11,0.79,1.52-.84-0.79-.79-1-.17-0.84-.9-0.9-2.81-1-.06-0.11-1.12,1.35-3.71,0.11-1.74h1.35l-0.22,1.24,1.35-.06,1.41,0.73-0.39-1.91,1-1.35,2-.28,1.46,0.22Z"/>
    <path id="TJ" class="cls-1"
          d="M391.34,190.72l0.11-1.52-2.08.51-1.24,2.42-1.29-.11-0.39.9,1.12,0.51,0.34,1.46-0.9,2,0.45,0.22,1.12-.62,0.51,0.39,0.51-.9,2-1.74,1.12,1.12L392.58,197l0.62,0.62,2.19-1.46,1.07,0.17h1.63l-0.22-1.12,0.06-.79-1-.45-0.51.22-0.39-1.86-2.92.28-1.91-.67-1.69.17,0.17-1.18,1.69,0.34,0.56-.62Z"/>
    <path id="TM" class="cls-1"
          d="M385,195.22l-2.08-.84-4.44-3.32-0.79-2.14-0.51-.39-1.69.11-0.62-.45-0.17-1.69-2.08-1.12-1.29,1.24-1.35.73,0.28,1.07-1.74.06-0.79.11L366.71,187l-1.07-.56-1.74.45-0.67.67,0.51,1.35,0.17-1.52,1.24-.56,0.45,1.18,1.12,1.24-1.35.67-1.46-.51-0.34,1.74,1,0.11-0.39,1.41,1.24,0.67-0.22,2.08,0.28,1.41,1.35-.39,1.12-1.12,2.81-.11,1.74,1,1.24,0.22,1.8,1.74,1.18,0.06,0.11,1.63,1.57,0.73,1.18-.28,0.34-.84,2.14-.9L382.4,197l1.29-.39,0.22-.67,0.73,0.51,0.45,0.06Z"/>
    <path id="TL" class="cls-1" d="M477.65,273.6l2.19-1.12-2.19.06-1.35.34-0.17.39,0.17,0.34,0.06,0.51Z"/>
    <path id="TT" class="cls-1" d="M186.22,243.46l-1.18-1,0.06,0.62Z"/>
    <path id="TN" class="cls-1"
          d="M298.56,204.22l-0.39-.9-0.79-.06-0.28-1,1-1,0.22-1.63-1.18-2,0.06-1-1.07-.22-1.69.79-0.34,1,0.22,1.86L294,201.69l-1,1.07,0.11,1.41,2.25,2.31,0.67,3.26,0.79-.39-0.06-1.52,2.31-1.8,0.11-1.41Z"/>
    <path id="TR" class="cls-1"
          d="M337.64,199.44l0.9-1.91,0.51,0.39,1.74-.56,2.14,0.34,1.8-.73,0.84,0.06,1.8-.28,0.67-.28,1.8,0.28,0.56,0.51,0.73-.34h0l-0.84-1.57,0.28-.62-0.51-2.31,1.07-.56-0.62-.62-1.18-.51,0.17-1-0.28-.73-1.52-1-1.69.11-1.86,1.07-1.35-.17-1.8.34-2.25-.79-2.7-1.46-2.59.06-1.8.62-1.86,1.35-3-.28-0.67,1.57-2.42.06-1.74,2,1,1-0.73,1.57,1.12,1.12,0.9,2L326,198l1.52,1,1.07-.22,0.34-.79,1.69,0.06,1.24,1,2.36-.22,1.07-1.12,1.69,1ZM324.88,187l-1.35-.28-1.57.67,0.79,0.56-0.51,1.29-0.39.22v0.45l0.51,1,2-1.74,1.86-.11,0.28-.51-1.35-.67Z"/>
    <path id="TW" class="cls-1" d="M470.23,222.83l1.24-3.77-0.73-.51-1.24,1.29-0.9,1.69,0.17,1.24,0.84,1.41Z"/>
    <path id="TZ" class="cls-1"
          d="M328.7,261.12l0.62,0.9-0.11.9-0.45.22h0l0.11,0.62,0.34,0.34-1,1.63-0.56.56h-0.17l-0.06.67,0.56,1.52-0.34.62,1.24,1.07,0.11,1,0.79,1.63,0.67,0.34,1,0.28,0.9,0.45,1.52,0.28,0.34,0.45,0.11-.28,0.84,0.84,0.11,1.69,0.51,0.62h0l0.62-.06,1.86,0.45,0.39-.22,1.07-.06,0.56-.45h1l1.69-.62,1.24-.9h0l-0.56-.34-1.18-2.53,0.45-2.19-1.07-1-0.11-.9,0.73-1.91-2.25-1.57-0.11-.9-5.68-3.2h0l-1.29,1.41,0.62,0.56-3.09.06,0.34-2h-1.69Z"/>
    <path id="UG" class="cls-1"
          d="M333.31,253.42h-1.12l-1.24.39-1-.34-0.62.45h0l-0.11,1.8,0.62,0.22-1.69,1.8-0.34.73-0.11,1.24-0.34.62v1.18l0.39,0.17,1-.51,0.56-.17H331l-0.06-.62,0.73-.9,2.47-.28,0.06,0.11,1.24-1.74,0.56-1.12-0.84-2.59-0.73-1.07Z"/>
    <path id="UA" class="cls-1"
          d="M331.4,163.9l-0.56-.11h0l-1.35.17-0.56,1.8-2-.11-0.39-.56h-2.42l-1.74-.62-2.81-.17-0.84.67-0.73.11,0.79,2.19-1,1-1.41,2,0.39,1.07-0.34-.11-0.45.62-0.28,1,0.84,0.62,0.11,0.62,0.67-.51,2,0.28,0.73,0.56,2.08-1.12h0.67l0.39-.34,1-.22,2.47,1.46-0.11.79,1.35,1.91-0.22.73-1.29.22-0.73,1.46-0.39.22,0.67,0.39,0.73-.34,0.73,0.39,1.18-1.63,0.56-1.24,1.46-.28,0.11,0.84,2.42,0.56,0.45,0.51-1.74,1.18,1.69,0.67-0.34,1L334,182l2.14-1.29,1.69-.39,0.28-.79-1.57.11-0.79-.56-0.11-1.41,1.35-.84,1.46-.11,1-.73,1.24-.17,0.06-1,0.79-.67,1.52-.17,0.22-.79-0.22-1.24,0.62-1.24V170l-2.31-.79h-0.9l-1-1.12-1.18.39-2-.84,0.06-.51L335.9,166l-1.24-.11,0.28-1.29-1-1.46-2.08.11Z"/>
    <path id="UY" class="cls-1"
          d="M191.39,308.8L191,310.26l-0.39,1.86-0.45,3.49,1,1.07,1.07-.06,1.46,0.79,2,0.17,1.74-1.07,0.67-1.18-0.45-1.07,0.67-.9-3.71-3.43L194,310l-1.57-1.41Z"/>
    <path id="US" class="cls-1"
          d="M38.68,229l1.12-.67-1.74.73Zm-0.84-2.59L37.55,226l-0.22.56Zm52.35-53.08,0.22,1.91-0.34.62-0.84-2.19L87,172.9l0.73,3.49,0.28,3-0.39,4-0.62,2,0.51,1.63,0.06,1.8-0.34,1.69L88,191.68l0.22,1.63,1.86,2.76,1.29,2.7,1.52,1.91,4.39,2.92,1,1.07,0.28,1,3.77-.34-0.17.34,5.9,2.19h4.33v-0.73h2.7l2.31,2,0.51,1,2.47,2.08,1-1.41,1.29-.06,1.12,0.73,2.25,3.26,0.79,2,2.31,0.9,0.62-.06-0.34-2.64,1.24-1.63,1.57-.79,1.41-1.35,4.78-.34,1.18,1,1.12,0.06,1.18-1.41,1.57-.9,1.41,0.22,1.74-.22,1,0.45,2.59,0.11,0.62,0.28,1.63,2.47L152.09,214l1.8,3.54,1.63,1.35,0.45-.22,0.51-2.92-0.73-2.81-1.46-4,0.22-1.29,1.63-2,4.55-3.77,1.63-.56,1-1.41-0.84-2.76L162,193.65l0.28-.84,0.17,1.69,0.79,0.73-0.51,1.35,1.52-2.25-0.73-2.19,1,1.12,1.12-1.57,0.34-1.46,3.15-1-0.45-.39-2.31.39,1.29-.62,3.71-1.24-0.51-1.12,1.12-2.87,1.63-.62,3.26-1.8-0.28-.73-1-1.24v-3.09l-0.67-.67-1.07.39-0.51-.62-1.18,1.74-0.45,1.74L170,179.93l-0.17.56h-5.23l-2.31,1.91,0.17,0.28,0.11,0.84-1.18.73-2.53-.28-0.73.22,0.11,0.62h0l0.06,0.22-1.35,1.24L154,187.74l-1.12.28-1.74-.56,0.56-.79h0l0.34-.73,0.73-1.18h0l-0.34-2.14-1.91.17,0.84-.84v-2l-1.18-.84-1.35-.45L148,180.77l-0.17-.73-1.41,2.36,0.45,2.25-0.06,1.41-0.62,1-1.29.51-0.73-3.37,0.67-2.76,0.79-1.69-1.41,1.41-0.22-.28,1.52-2.25,2.25-.67L150.4,178l-0.79-.9h0l-0.39-.06h0l-0.79-.73-2.92.73-2-1.18,0.51-1.24-3.82,2.08-1-.79-1.57.45,2.19-2.25,1.57-.79h0l-1.91-.62-1.24.28-1.52-.73-3.15-.9-0.28-1.29-0.51,1H89.68ZM42.61,150.29L44,148.94l-0.67-.9L40,149.34l0.22,1.35L41,151.42ZM23,141.92l-0.17-1.18-1.24-.28-1.52.56,2,1.41Zm-9.61-12.76,0.28,1.63,1.35-.22,1.8,1.41,1.29-1.12-1.57-.45-1.24-.9-1,.34ZM77.7,156.76l0.84-1.29-0.06-1.74-2.64-1.8-1.57-3.26-1-2.14-1.41-1.35-1.07-1.24L70,142.37l-1.57,1-1.52,1.69-1.41-2-1.07-1.35-1.52-.84-1.52-.11V105.59h0L59.71,105l-2.36-1.35-2.08.73-1.18-.62-3-.45-3.26-1.46-1.57.45-2.36-.79L44,100.42l-2.64-.28-0.67.9L39.58,98.9l-2.36-1-2.42,2.59-1.46-.34-3,2.08-1.52.51-1.57,2.19-0.39,2.19-2,2-2.76.17-0.9,2.25,2.14,1.35,1.46,1.74,1.12,2,1.91,1.52,1.29,2.42-3.32.17,0.22-2H24.79l-3.49,1.91-2.19,1.57,2,2.19,0.67,1.46,2.31,0.84,2.19-.39,1.24,0.79,0.45-.79,1.63-.79,1-.06-1.18,1.41,0.9,0.67,0.28,1.63-1.18,1.07L28.22,130,27,131.68l-1.07-.56-1.24.22-0.56,1.74-1.29,1.86-0.62,1.91,1.18,1.41v1.8l2.36,2.25,2-.62,1,1.12-0.28,1.12,0.11,1.8h1l1.57-1.18,0.56,1.52L32.16,145l1,1.52L34,145.4l0.51,0.51,1.8-.9-0.79,1.74L35.25,149l-1.52,1.57-2.14,1.69-0.79,1.12-1.91.34-1.69,1.52L24,157.32l0.22,0.45,2.7-.79,4.33-2.59,1.07,0.22,1.8-1.18,0.51-1.29L37,150.69l0.39-1.29,3.26-2.14,1.46-2.14L41,143.66l2.25-2.19,1.07-2.08,2-1.8,0.45,0.79-1.63,1-0.67,3.09,0.22,1.8,1.74-.67,1.35-1,2.64-.84-0.34-2.19,1.74-.67,1.86,1.35,3.09,1.46,2.14-.28,4.22,1.69,3.2,3.15,1.86,0.84,4,0.28L73,150.13l2,2.31,0.45,2.42,1.35,0.9,0.84,1h0Z"/>
    <path id="UZ" class="cls-1"
          d="M391,186.84l-2.08,1.46-0.67,1.46-1-1-2-.06-0.34-1.69h-0.79l0.11-2.14-1.86-1.57-4.5.51-1.46-2-4-2.59-4,1.29,0.06,7.87,1.74-.06L370,187.35l1.35-.73,1.29-1.24,2.08,1.12,0.17,1.69,0.62,0.45,1.69-.11,0.51,0.39,0.79,2.14,4.44,3.32,2.08,0.84-0.06,1.18h0.84l1.18,0.39,0.9-2-0.34-1.46-1.12-.51,0.39-.9,1.29,0.11,1.24-2.42,2.08-.51-0.11,1.52,0.62-.06,1.18,0.22,2-1.46-1.86-1.07-1.12.51L391,188l1.29-1.35-0.45-.22Z"/>
    <path id="VE" class="cls-1"
          d="M187.46,245.88l-0.79.06-0.22-1.24-1.18-.79L184,243.8l-0.51-.73,1.35-.45-3.82.11-0.9.9-1.18-.17-0.9-.73-3.09.17-1.07-1.41h-1.07l-0.56-1.12-0.34,1.24-2,.62,0.56,1.74-0.34,1.12-0.67.11L169,244l0.22-2.47,0.9-.17,0.06-.39-1,.28-1.46,1.86L167,245.15l1.35,1.18,0.73,2.25,2.92,0.06,1.12,1.35,2.64-.28,0.56,0.28-0.73,2.47,0.79,1.86-0.79.79,1,0.9,0.45,1.57,0.84,0.84,1.52-.56,2-1.29-0.45-2.92-0.67-.39,2.7,0.45,0.45-.39,2.87-.84,0.56-.62-0.22-.45-1.07-1.18,0.45-.45-0.06-.73,2.19-2.64Z"/>
    <path id="VN" class="cls-1"
          d="M440.59,223.39l0.9,1.35,0.67,1.52h1.91l0.62,1.46-1.46,1,1.86,1,3.49,4.5,0.39,1.12L448.69,237l0.34,1.07L448.86,240l-2.64,1.24,0.67,1-1.63.11-1.35.62,1.18,0.9-0.45,1.07,0.56,1,2-1.46,1.29-1.29,3.09-2.08,0.22-2.81-0.73-3-1-1.29-1.41-1L446,229.07l0.34-1.12,1.29-1.57,2.08-1.41-1.57-.45-0.73-.67,0.22-1-1.41-.28-0.73-.62-1.35.9-2.76.17Z"/>
    <path id="VU" class="cls-1" d="M541.86,282.88l-0.73-.51,0.06,1.24,1,0.56Z"/>
    <path id="YE" class="cls-1"
          d="M362.33,229.13l-4.5.62-1.46.73-1.12,1.74-5.29-.51-1.07-.28-1,2,0.06,0.73-0.34,1.12L348.1,236l0.9,3.49,2.36-.11,0.22-.39,5.51-1.69,1.41-1.12,4-1.46,0.34-1.29,1.12-.45-0.51-1.12Z"/>
    <path id="ZA" class="cls-1"
          d="M329,294.8l-0.51.22-0.73-.28h-0.62L325,296l-1.41,1.29-1,1.8-0.84.11-1.41,1.74-1.29-.11-1.41-.67-0.79.39-1.91,2.14-1.12.17-0.22-1.69-0.9-1.63-0.39-.28v6.47l-1.41.9-2.53-.34-0.9-1.24-0.73.9,1.12,2.31,1.8,3.26,0.06,1.41-0.51.34,0.79,2.59,0.67,0.84,1.91,0.67,1-.73,2.92-1.07,1.57-.11,1.69,0.34,2.7-.67,1.63-.73,4-3.82,1.29-2.25,2-2.08L332,304l0.39-1.29h-1.18l-0.34.79-0.9.17-1-1.57,1-1.29,0.79,0.34-0.11-.62,0.28-1.91-0.39-1.24L329.83,295Zm-3.94,14.62-0.56.17-1.18-1.41,2.42-2.19,1.24,1.07Z"/>
    <path id="ZM" class="cls-1"
          d="M328.87,272.31l-2.81.39-0.45,1,0.34,0.67-0.45,3.49,1.91,0.62,0.11,1.74h-1.18l-1.24-1.57-1.18-.22-0.34-.84-1,.51-1.24-.22-0.51-.73-1.8-.62-0.56-.06,0.17,0.51v2.64h-3.26l-0.06,5.12,1.07,1.35,1,1,1.29-.39,1,0.11,0.62,0.39v0.11l0.28,0.11,1.74,0.17,1.91-.9,1.35-1.35L327.3,284l1.18-.22-0.17-1.12,4.72-1.35-0.84-.39,1-2-0.28-1.29,0.17-3-0.73-.73-0.9-.45-1-.28-0.67-.34,0.11,0.28-0.28.11-0.34-.34-0.51-.11Z"/>
    <path id="ZW" class="cls-1"
          d="M331.51,293.06l0.84-2.31-0.22-.51,0.39-2.36V285.8l-2.59-1.41-1.29.06-0.17-.62-1.18.22-1.63,1.35-1.35,1.35-1.91.9-1.74-.17,0.62,1.29,0.79,1.24,1.74,1.8,1.12,1.86,1.18,0.28,1,0.79h0.62l0.73,0.28,0.51-.22,0.84,0.17Z"/>
    <g id="RECTANGLE_12" data-name="Rectangle 8">
        <rect class="cls-2" x="69.07" y="10.85" width="28.06" height="14.4"/>
    </g>
    <text id="TEXT_12" class="cls-3" transform="translate(41.17 21.92)">U
        <tspan x="8.62" y="0">S</tspan>
        <tspan x="15.35" y="0">A</tspan>
    </text>
    <text id="VALUE_12" class="cls-4" transform="translate(73.25 21.2)">8888</text>
    <polyline id="POLYLINE_12" class="cls-5" points="42.17 28.13 97.13 28.13 97.13 188.21"/>
    <g id="RECTANGLE_2" data-name="Rectangle 8">
        <rect class="cls-2" x="111.79" y="10.85" width="28.06" height="14.4"/>
    </g>
    <text id="TEXT_2" class="cls-3" transform="translate(144.27 22.4)">C
        <tspan x="7.96" y="0">ANA</tspan>
        <tspan x="32.63" y="0">D</tspan>
        <tspan x="41.16" y="0">A</tspan>
    </text>
    <text id="VALUE_2" class="cls-4" transform="translate(115.97 21.2)">8888</text>
    <polyline id="POLYLINE_2" class="cls-5" points="192.75 28.13 111.79 28.13 111.79 158.21"/>
    <g id="RECTANGLE_3" data-name="Rectangle 8">
        <rect class="cls-2" x="269.99" y="50.85" width="28.06" height="14.4"/>
    </g>
    <text id="TEXT_3" class="cls-3" transform="translate(207.69 62.4)">G
        <tspan x="8.74" y="0">E</tspan>
        <tspan x="15.26" y="0">R</tspan>
        <tspan x="22.73" y="0">M</tspan>
        <tspan x="33.71" y="0">AN</tspan>
        <tspan x="50.64" y="0">Y</tspan>
    </text>
    <text id="VALUE_3" class="cls-4" transform="translate(274.17 61.2)">8888</text>
    <polyline id="POLYLINE_3" class="cls-5" points="208.09 68.13 298.05 68.13 298.05 165.21"/>
    <g id="RECTANGLE_7" data-name="Rectangle 8">
        <rect class="cls-2" x="413.01" y="130.85" width="28.06" height="14.4"/>
    </g>
    <text id="TEXT_7" class="cls-3" transform="translate(341.85 142.4)">S
        <tspan x="6.49" y="0">I</tspan>
        <tspan x="9.77" y="0">N</tspan>
        <tspan x="18.78" y="0">G</tspan>
        <tspan x="27.79" y="0">A</tspan>
        <tspan x="35.53" y="0">P</tspan>
        <tspan x="42.76" y="0">O</tspan>
        <tspan x="52.09" y="0">R</tspan>
        <tspan x="59.55" y="0">E</tspan>
    </text>
    <text id="VALUE_7" class="cls-4" transform="translate(417.2 141.2)">8888</text>
    <polyline id="POLYLINE_7" class="cls-5" points="342.12 148.13 441.07 148.13 441.07 255.21"/>
    <g id="RECTANGLE_8" data-name="Rectangle 8">
        <rect class="cls-2" x="276.99" y="10.85" width="28.06" height="14.4"/>
    </g>
    <text id="TEXT_8" class="cls-3" transform="translate(223.25 22.4)">S
        <tspan x="6.83" y="0">W</tspan>
        <tspan x="18" y="0">E</tspan>
        <tspan x="24.52" y="0">D</tspan>
        <tspan x="33.23" y="0">E</tspan>
        <tspan x="39.75" y="0">N</tspan>
    </text>
    <text id="VALUE_8" class="cls-4" transform="translate(281.17 21.2)">8888</text>
    <polyline id="POLYLINE_8" class="cls-5" points="224.09 28.13 305.05 28.13 305.05 135.21"/>
    <g id="RECTANGLE_11" data-name="Rectangle 8">
        <rect class="cls-2" x="251.99" y="90.85" width="28.06" height="14.4"/>
    </g>
    <text id="TEXT_11" class="cls-3" transform="translate(230.99 102.4)">U
        <tspan x="8.69" y="0">K</tspan>
    </text>
    <text id="VALUE_11" class="cls-4" transform="translate(256.17 101.2)">8888</text>
    <polyline id="POLYLINE_11" class="cls-5" points="232.09 108.13 280.05 108.13 280.05 165.21"/>
    <g id="RECTANGLE_4" data-name="Rectangle 8">
        <rect class="cls-2" x="312.29" y="10.85" width="28.06" height="14.4"/>
    </g>
    <text id="TEXT_4" class="cls-3" transform="translate(344.76 22.4)">P
        <tspan x="7.24" y="0">O</tspan>
        <tspan x="16.56" y="0">L</tspan>
        <tspan x="23.39" y="0">A</tspan>
        <tspan x="31.13" y="0">N</tspan>
        <tspan x="40.1" y="0">D</tspan>
    </text>
    <text id="VALUE_4" class="cls-4" transform="translate(316.47 21.2)">8888</text>
    <polyline id="POLYLINE_4" class="cls-5" points="393.24 28.13 312.29 28.13 312.29 162.21"/>
    <g id="RECTANGLE_6" data-name="Rectangle 8">
        <rect class="cls-2" x="430.44" y="10.85" width="28.06" height="14.4"/>
    </g>
    <text id="TEXT_6" class="cls-3" transform="translate(462.92 22.4)">R
        <tspan x="7.35" y="0">U</tspan>
        <tspan x="15.97" y="0">S</tspan>
        <tspan x="22.63" y="0">S</tspan>
        <tspan x="29.12" y="0">I</tspan>
        <tspan x="32.62" y="0">A</tspan>
    </text>
    <text id="VALUE_6" class="cls-4" transform="translate(434.63 21.2)">8888</text>
    <polyline id="POLYLINE_6" class="cls-5" points="503.4 28.13 430.44 28.13 430.44 112.21"/>
    <g id="RECTANGLE_5" data-name="Rectangle 8">
        <rect class="cls-2" x="320.6" y="50.85" width="28.06" height="14.4"/>
    </g>
    <text id="TEXT_5" class="cls-3" transform="translate(353.08 62.4)">R
        <tspan x="7.33" y="0">O</tspan>
        <tspan x="16.65" y="0">M</tspan>
        <tspan x="27.64" y="0">A</tspan>
        <tspan x="35.37" y="0">N</tspan>
        <tspan x="44.35" y="0">I</tspan>
        <tspan x="47.84" y="0">A</tspan>
    </text>
    <text id="VALUE_5" class="cls-4" transform="translate(324.79 61.2)">8888</text>
    <polyline id="POLYLINE_5" class="cls-5" points="408.56 68.13 320.61 68.13 320.61 179.21"/>
    <g id="RECTANGLE_1" data-name="Rectangle 8">
        <rect class="cls-2" x="323.6" y="228.1" width="28.06" height="14.4"/>
    </g>
    <text id="TEXT_1" class="cls-3" transform="translate(356.08 239.65)">B
        <tspan x="7.75" y="0">U</tspan>
        <tspan x="16.44" y="0">L</tspan>
        <tspan x="22.38" y="0">G</tspan>
        <tspan x="31.39" y="0">A</tspan>
        <tspan x="39.13" y="0">R</tspan>
        <tspan x="46.59" y="0">I</tspan>
        <tspan x="50.09" y="0">A</tspan>
    </text>
    <text id="VALUE_1" class="cls-4" transform="translate(327.79 238.45)">8888</text>
    <polyline id="POLYLINE_1" class="cls-5" points="413.56 245.38 320.61 245.38 320.61 186.46"/>
    <g id="RECTANGLE_10" data-name="Rectangle 8">
        <rect class="cls-2" x="330.6" y="90.85" width="28.06" height="14.4"/>
    </g>
    <text id="TEXT_10" class="cls-3" transform="translate(363.08 102.4)">U
        <tspan x="8.69" y="0">K</tspan>
        <tspan x="16.2" y="0">R</tspan>
        <tspan x="24.26" y="0">A</tspan>
        <tspan x="31.99" y="0">IN</tspan>
        <tspan x="44.25" y="0">E</tspan>
    </text>
    <text id="VALUE_10" class="cls-4" transform="translate(334.79 101.2)">8888</text>
    <polyline id="POLYLINE_10" class="cls-5" points="413.56 108.13 330.61 108.13 330.61 171.21"/>
    <g id="RECTANGLE_13" data-name="Rectangle 8">
        <rect class="cls-2" x="449.94" y="130.85" width="28.06" height="14.4"/>
    </g>
    <text id="TEXT_13" class="cls-3" transform="translate(482.41 142.4)">V
        <tspan x="7.29" y="0">I</tspan>
        <tspan x="10.57" y="0">E</tspan>
        <tspan x="17.57" y="0">T</tspan>
        <tspan x="24.3" y="0">NA</tspan>
        <tspan x="41.23" y="0">M</tspan>
    </text>
    <text id="VALUE_13" class="cls-4" transform="translate(454.12 141.2)">8888</text>
    <polyline id="POLYLINE_13" class="cls-5" points="533.89 148.13 449.94 148.13 449.94 240.21"/>
    <g id="RECTANGLE_9" data-name="Rectangle 8">
        <rect class="cls-2" x="262.98" y="228.1" width="28.06" height="14.4"/>
    </g>
    <text id="TEXT_9" class="cls-3" transform="translate(176.55 239.65)">S
        <tspan x="6.83" y="0">W</tspan>
        <tspan x="18" y="0">I</tspan>
        <tspan x="21.45" y="0">T</tspan>
        <tspan x="28.46" y="0">Z</tspan>
        <tspan x="35.21" y="0">E</tspan>
        <tspan x="41.73" y="0">R</tspan>
        <tspan x="49.2" y="0">L</tspan>
        <tspan x="56.02" y="0">A</tspan>
        <tspan x="63.76" y="0">N</tspan>
        <tspan x="72.74" y="0">D</tspan>
    </text>
    <text id="VALUE_9" class="cls-4" transform="translate(267.16 238.45)">8888</text>
    <polyline id="POLYLINE_9" class="cls-5" points="177.08 245.38 294.04 245.38 294.04 176.46"/>
</svg>