<?xml version="1.0" encoding="utf-8"?>
<!-- Generator: Adobe Illustrator 19.2.1, SVG Export Plug-In . SVG Version: 6.00 Build 0)  -->
<svg version="1.1" id="Layer_1" xmlns="http://www.w3.org/2000/svg" xmlns:xlink="http://www.w3.org/1999/xlink" x="0px" y="0px"
	 viewBox="0 0 1920 1016.8" style="enable-background:new 0 0 1920 1016.8;" xml:space="preserve">
<style type="text/css">
	.st0{fill:#273E76;}
</style>
<g>
	<path class="st0" d="M1022.7,547l-44.1,44.1l55.4,55.4h88.1L1022.7,547z M508.4,928.7L369.1,789.4v88.1l139.3,139.3L646.2,879
		v-88.1L508.4,928.7z M88.1,508.4l139.1-139.1h-88.1L0,508.4l138.1,138.1h88.1L88.1,508.4z M483.4,583.4H365.5V370h-70.7v276.6
		h188.6V583.4z M508.4,88.1l138,138V138L508.4,0L368.9,139.5v88.1L508.4,88.1z M758.5,542.4V370h-70.7v172.4
		c0,23.7-22.7,47.4-48.1,47.4c-28,0-48.5-23.7-48.5-47.4V370H520v172.4c0,72.3,65.9,107.8,118.8,107.8
		C691.8,650.2,758.5,613.4,758.5,542.4 M1016.5,508.4L878.2,370h-88.1l138.3,138.3L790.3,646.5h88.1L1016.5,508.4z M1022.7,469.7
		l100.5-100.5h-88.1l-56.4,56.4L1022.7,469.7z M1338.3,508.7c0,61.1-37.2,81.4-73.7,81.4c-36.4,0-74.1-26.3-74.1-81.4
		c0-54.6,35.2-81.8,73.7-81.8C1300.7,426.9,1338.3,450,1338.3,508.7 M1407.7,508.7c0-85.8-65.2-143.4-143-143.4
		c-78.3,0-143.5,56.5-143.5,143.4c0,87.3,65.2,143,143.5,143C1342.5,651.8,1407.7,595.6,1407.7,508.7 M1526.2,431.2h113.7V370
		h-183.2v276.6h69.6V543.5h110.9V483h-110.9V431.2z M1920,430.9V370h-225.4v60.8h76.9v215.8h70.7V430.9H1920z"/>
</g>
</svg>
