<svg xmlns="http://www.w3.org/2000/svg" width="834" height="65" viewBox="0 0 834 65">
  <defs>
    <style>
      .cls-1 {
        fill: #fff;
      }

      .cls-1, .cls-2 {
        fill-rule: evenodd;
      }

      .cls-2 {
        fill: #f2f2f2;
        opacity: 0.5;
      }
    </style>
  </defs>
  <path class="cls-1" d="M35.983,54H0V0.935H13.492V41.87h22.49V54ZM56.539,0.935V34a9.322,9.322,0,0,0,9.248,9.088A9.61,9.61,0,0,0,74.959,34V0.935H88.451V34c0,13.627-12.715,20.68-22.816,20.68S42.971,47.866,42.971,34V0.935H56.539Zm155.75,26.607c0,16.676-12.437,27.442-27.286,27.442-14.925,0-27.362-10.689-27.362-27.442C157.641,10.864,170.078.024,185,.024,199.852,0.024,212.289,11.092,212.289,27.543ZM185,43.151c6.948,0,14.051-3.883,14.051-15.607,0-11.259-7.18-15.686-14.129-15.686-7.335,0-14.052,5.2-14.052,15.686C170.874,38.1,178.054,43.151,185,43.151Zm71.561-30.468H234.88v9.931h21.157v11.6H234.88V54H221.613V0.935h34.952V12.683ZM310,0.935V12.608H295.175V54H281.682V12.608H267.008V0.935H310ZM138.853,20.062L158.017,0.788H141.206l-10.759,10.82Zm-8.406,23.28L141.02,53.976h16.811L138.853,34.889ZM94.483,0.944l26.38,26.531-26.35,26.5h16.811l26.35-26.5L111.293,0.945H94.483Z"/>
  <path id="powered_by_Horizon_Light" data-name="powered by Horizon Light" class="cls-2" d="M354.762,51.865q2.451-3.041,2.452-8.535,0-5.473-2.411-8.5a8.242,8.242,0,0,0-6.846-3.031,9.222,9.222,0,0,0-3.968.814,7.842,7.842,0,0,0-3.031,2.645H340.8L340.327,32.2h-2.746V64.51h3.377V55.334a29.863,29.863,0,0,0-.244-3.7h0.244a7.482,7.482,0,0,0,3.021,2.472,9.655,9.655,0,0,0,3.978.8A8.255,8.255,0,0,0,354.762,51.865Zm-2.685-14.974a10.685,10.685,0,0,1,1.637,6.4,11.1,11.1,0,0,1-1.637,6.449,5.226,5.226,0,0,1-4.527,2.34q-3.459,0-5.025-2.024t-1.567-6.724V42.578q0.041-4.13,1.567-6.022t4.943-1.892A5.388,5.388,0,0,1,352.077,36.891ZM379.6,34.908a9.432,9.432,0,0,0-7.436-3.113,9.641,9.641,0,0,0-7.568,3.042q-2.727,3.042-2.726,8.494a14.038,14.038,0,0,0,1.261,6.144,9.268,9.268,0,0,0,3.581,4.028,10.049,10.049,0,0,0,5.31,1.4,9.673,9.673,0,0,0,7.589-3.062q2.747-3.062,2.746-8.514Q382.36,38.02,379.6,34.908Zm-12.542,1.933a5.944,5.944,0,0,1,5-2.177,6.042,6.042,0,0,1,5.076,2.207q1.719,2.208,1.719,6.46,0,4.293-1.719,6.521a6.783,6.783,0,0,1-10.061-.01q-1.709-2.238-1.709-6.51Q365.372,39.018,367.061,36.841ZM410.5,54.5l6.165-22.3h-3.5q-3.887,14.893-4.242,16.419a21.364,21.364,0,0,0-.438,2.258H408.32A43.085,43.085,0,0,0,406.774,45l-3.987-12.8h-3.662L395.035,45q-0.366,1.078-.865,2.919t-0.722,3h-0.163A51.83,51.83,0,0,0,391.994,45q-1.13-4.395-3.286-12.8h-3.54l6.083,22.3h3.906l4.212-13.041q0.611-1.933,1.424-5.493h0.163q1.058,4.252,1.444,5.452L406.489,54.5H410.5Zm23.468,0.071a17.867,17.867,0,0,0,3.388-1.109V50.451a17.958,17.958,0,0,1-7.121,1.506,6.861,6.861,0,0,1-5.3-2.034,8.832,8.832,0,0,1-1.983-5.961h15.36V41.825a10.569,10.569,0,0,0-2.441-7.273,8.411,8.411,0,0,0-6.633-2.757,8.82,8.82,0,0,0-7.131,3.174q-2.655,3.174-2.655,8.565,0,5.351,2.859,8.362a10.242,10.242,0,0,0,7.8,3.011A19.031,19.031,0,0,0,433.965,54.571Zm-0.7-18.249a7.428,7.428,0,0,1,1.424,4.893H423.03a8.065,8.065,0,0,1,1.882-4.842,5.513,5.513,0,0,1,4.282-1.75A5.015,5.015,0,0,1,433.264,36.322Zm17.13-3.347a9.8,9.8,0,0,0-2.991,3.357h-0.162l-0.387-4.13h-2.787V54.5h3.377V42.537a8.011,8.011,0,0,1,1.923-5.473,5.941,5.941,0,0,1,4.628-2.2,11.514,11.514,0,0,1,2.442.305l0.467-3.133a13.206,13.206,0,0,0-2.665-.244A6.733,6.733,0,0,0,450.394,32.975Zm23.956,21.6a17.867,17.867,0,0,0,3.388-1.109V50.451a17.958,17.958,0,0,1-7.121,1.506,6.861,6.861,0,0,1-5.3-2.034,8.838,8.838,0,0,1-1.984-5.961h15.361V41.825a10.569,10.569,0,0,0-2.441-7.273,8.411,8.411,0,0,0-6.633-2.757,8.82,8.82,0,0,0-7.131,3.174q-2.655,3.174-2.655,8.565,0,5.351,2.859,8.362a10.242,10.242,0,0,0,7.8,3.011A19.038,19.038,0,0,0,474.35,54.571Zm-0.7-18.249a7.423,7.423,0,0,1,1.425,4.893H463.415a8.065,8.065,0,0,1,1.882-4.842,5.513,5.513,0,0,1,4.282-1.75A5.013,5.013,0,0,1,473.648,36.322ZM500.077,54.5h2.746V22.843h-3.377v9.074l0.081,1.567,0.143,1.607h-0.265a8.108,8.108,0,0,0-6.958-3.3,8.216,8.216,0,0,0-6.8,3.052q-2.442,3.052-2.441,8.565t2.431,8.5a8.278,8.278,0,0,0,6.805,2.991,7.936,7.936,0,0,0,7-3.4h0.183Zm-11.8-4.6q-1.567-2.177-1.567-6.449a11.476,11.476,0,0,1,1.577-6.521,5.168,5.168,0,0,1,4.547-2.309q3.458,0,5.035,2.024t1.577,6.765v0.712q0,4.191-1.556,6.073t-5.016,1.882A5.3,5.3,0,0,1,488.277,49.9Zm35.909-14.73h-0.163q0.162-2.055.163-4.639v-7.69h-3.378V54.5h2.421l0.712-2.869h0.245a7.469,7.469,0,0,0,3.021,2.472,9.65,9.65,0,0,0,3.977.8,8.257,8.257,0,0,0,6.806-3.042q2.451-3.041,2.451-8.535t-2.431-8.494a8.29,8.29,0,0,0-6.826-3,8.016,8.016,0,0,0-7,3.337h0Zm11.23,1.628q1.525,2.136,1.526,6.49a11.661,11.661,0,0,1-1.526,6.521,5.208,5.208,0,0,1-4.639,2.268q-3.459,0-5.025-2.024t-1.566-6.724q0-4.7,1.525-6.683t4.985-1.984A5.407,5.407,0,0,1,535.416,36.8Zm16.378,17.822L550.553,57.8q-1.486,3.906-4.964,3.906a11.771,11.771,0,0,1-2.5-.244v2.706a13.594,13.594,0,0,0,3.052.346,7.075,7.075,0,0,0,4.669-1.577,12.664,12.664,0,0,0,3.326-5.341L563.716,32.2H560.1q-4.68,12.939-5.524,15.452t-1.109,3.55H553.3a48.351,48.351,0,0,0-1.994-6.287L546.423,32.2H542.8Zm49.459-29.867h-3.459V37.41H582.128V24.756H578.67V54.5h3.458v-14h15.666v14h3.459V24.756Zm24.139,10.152a9.434,9.434,0,0,0-7.436-3.113,9.645,9.645,0,0,0-7.569,3.042q-2.725,3.042-2.726,8.494a14.038,14.038,0,0,0,1.262,6.144A9.26,9.26,0,0,0,612.5,53.5a10.054,10.054,0,0,0,5.31,1.4,9.673,9.673,0,0,0,7.589-3.062q2.746-3.062,2.747-8.514Q628.149,38.02,625.392,34.908Zm-12.543,1.933a5.945,5.945,0,0,1,5-2.177,6.04,6.04,0,0,1,5.076,2.207q1.719,2.208,1.719,6.46,0,4.293-1.719,6.521a6.782,6.782,0,0,1-10.06-.01q-1.71-2.238-1.709-6.51Q611.161,39.018,612.849,36.841ZM640.4,32.975a9.8,9.8,0,0,0-2.99,3.357h-0.163l-0.387-4.13h-2.787V54.5h3.377V42.537a8.011,8.011,0,0,1,1.923-5.473,5.943,5.943,0,0,1,4.629-2.2,11.505,11.505,0,0,1,2.441.305l0.468-3.133a13.213,13.213,0,0,0-2.665-.244A6.738,6.738,0,0,0,640.4,32.975Zm14.059-.773h-3.377V54.5h3.377V32.2Zm-3.093-4.344a2.067,2.067,0,0,0,2.828,0,2.234,2.234,0,0,0,.59-1.7,2.2,2.2,0,0,0-.59-1.689,2.109,2.109,0,0,0-2.828-.01,2.246,2.246,0,0,0-.569,1.7A2.287,2.287,0,0,0,651.362,27.858Zm24.516,24.017H663.569l12-17.049V32.2H660.457v2.625H671.87L659.7,52.2v2.3h16.174V51.876ZM697.6,34.908a9.436,9.436,0,0,0-7.437-3.113,9.641,9.641,0,0,0-7.568,3.042q-2.727,3.042-2.726,8.494a14.038,14.038,0,0,0,1.261,6.144,9.268,9.268,0,0,0,3.581,4.028,10.049,10.049,0,0,0,5.31,1.4,9.673,9.673,0,0,0,7.589-3.062q2.746-3.062,2.746-8.514Q700.353,38.02,697.6,34.908Zm-12.543,1.933a5.944,5.944,0,0,1,5-2.177,6.042,6.042,0,0,1,5.076,2.207q1.719,2.208,1.719,6.46,0,4.293-1.719,6.521a6.783,6.783,0,0,1-10.061-.01q-1.709-2.238-1.709-6.51Q683.365,39.018,685.054,36.841ZM724.91,54.5V39.953q0-4.272-2.035-6.215t-6.063-1.943a9.451,9.451,0,0,0-4.17.905,6.9,6.9,0,0,0-2.91,2.553H709.57L709.02,32.2h-2.746V54.5h3.377V42.8q0-4.354,1.628-6.246t5.126-1.892a5.055,5.055,0,0,1,3.886,1.343,5.817,5.817,0,0,1,1.241,4.069V54.5h3.378Zm34.851,0V51.367H746.638V24.756H743.18V54.5h16.581Zm7.914-22.3H764.3V54.5h3.377V32.2Zm-3.092-4.344a1.948,1.948,0,0,0,1.424.559,1.968,1.968,0,0,0,1.4-.559,2.235,2.235,0,0,0,.591-1.7,2.2,2.2,0,0,0-.591-1.689,2.108,2.108,0,0,0-2.827-.01,2.243,2.243,0,0,0-.57,1.7A2.284,2.284,0,0,0,764.583,27.858ZM785.375,32.2a11.326,11.326,0,0,0-3.153-.407A8.971,8.971,0,0,0,776,33.779a7.214,7.214,0,0,0-2.2,5.646,7.12,7.12,0,0,0,1.088,3.906,6.024,6.024,0,0,0,2.818,2.421,6.845,6.845,0,0,0-2.055,1.77A3.591,3.591,0,0,0,775,49.658a3.173,3.173,0,0,0,.58,1.892,3.537,3.537,0,0,0,1.434,1.2,6.634,6.634,0,0,0-3.662,2.014,5.164,5.164,0,0,0-1.3,3.52,5.256,5.256,0,0,0,2.37,4.6,11.842,11.842,0,0,0,6.745,1.628q5.7,0,8.667-1.943a6.332,6.332,0,0,0,2.97-5.646,5.3,5.3,0,0,0-1.943-4.435,8.837,8.837,0,0,0-5.564-1.526h-3.947a5.5,5.5,0,0,1-2.584-.437,1.457,1.457,0,0,1-.753-1.353q0-1.729,2.157-2.869a10.2,10.2,0,0,0,1.872.163,9.028,9.028,0,0,0,6.144-1.953,6.591,6.591,0,0,0,2.238-5.229,7.259,7.259,0,0,0-1.465-4.456l4.13-.488V32.2h-7.711ZM776.586,55.09a5.334,5.334,0,0,1,3.581-1.1h4.049a8.69,8.69,0,0,1,4.211.7,2.728,2.728,0,0,1,1.119,2.513,3.894,3.894,0,0,1-2.045,3.449q-2.044,1.271-6.3,1.271a8.424,8.424,0,0,1-4.374-.936,3.027,3.027,0,0,1-1.526-2.747A3.927,3.927,0,0,1,776.586,55.09Zm1.831-19.552a4.955,4.955,0,0,1,3.662-1.282q5.006,0,5,5.025,0,4.8-4.944,4.8a5.278,5.278,0,0,1-3.682-1.2,4.539,4.539,0,0,1-1.323-3.54A5.164,5.164,0,0,1,778.417,35.538ZM816.3,54.5V39.953q0-4.231-2.045-6.175t-6.134-1.943a9.224,9.224,0,0,0-4.2.926,6.884,6.884,0,0,0-2.838,2.533h-0.2a20.8,20.8,0,0,0,.163-2.869V22.843h-3.377V54.5h3.377V42.842q0-4.354,1.617-6.266t5.137-1.912a5.056,5.056,0,0,1,3.886,1.343,5.822,5.822,0,0,1,1.241,4.069V54.5H816.3Zm11.515-3.459a4.511,4.511,0,0,1-.956-3.092V34.826h6.469V32.2h-6.469V27.034h-1.953l-1.425,4.761-3.194,1.4v1.628h3.194V48.091q0,6.816,6.47,6.816a12.181,12.181,0,0,0,1.923-.173,6.165,6.165,0,0,0,1.617-.437V51.713a12,12,0,0,1-3.052.407A3.325,3.325,0,0,1,827.815,51.041Z"/>
</svg>
